%TF.GenerationSoftware,KiCad,Pcbnew,(5.1.9)-1*%
%TF.CreationDate,2021-09-28T20:53:43+01:00*%
%TF.ProjectId,cessna_switch_radio,63657373-6e61-45f7-9377-697463685f72,rev?*%
%TF.SameCoordinates,Original*%
%TF.FileFunction,Legend,Bot*%
%TF.FilePolarity,Positive*%
%FSLAX46Y46*%
G04 Gerber Fmt 4.6, Leading zero omitted, Abs format (unit mm)*
G04 Created by KiCad (PCBNEW (5.1.9)-1) date 2021-09-28 20:53:43*
%MOMM*%
%LPD*%
G01*
G04 APERTURE LIST*
%ADD10C,0.150000*%
%ADD11C,0.300000*%
%ADD12C,0.250000*%
%ADD13C,0.120000*%
G04 APERTURE END LIST*
D10*
X32420000Y-36535714D02*
X32362857Y-36421428D01*
X32362857Y-36250000D01*
X32420000Y-36078571D01*
X32534285Y-35964285D01*
X32648571Y-35907142D01*
X32877142Y-35850000D01*
X33048571Y-35850000D01*
X33277142Y-35907142D01*
X33391428Y-35964285D01*
X33505714Y-36078571D01*
X33562857Y-36250000D01*
X33562857Y-36364285D01*
X33505714Y-36535714D01*
X33448571Y-36592857D01*
X33048571Y-36592857D01*
X33048571Y-36364285D01*
X33562857Y-37107142D02*
X32762857Y-37107142D01*
X32362857Y-37107142D02*
X32420000Y-37050000D01*
X32477142Y-37107142D01*
X32420000Y-37164285D01*
X32362857Y-37107142D01*
X32477142Y-37107142D01*
X32762857Y-37507142D02*
X32762857Y-37964285D01*
X32362857Y-37678571D02*
X33391428Y-37678571D01*
X33505714Y-37735714D01*
X33562857Y-37850000D01*
X33562857Y-37964285D01*
X33562857Y-38364285D02*
X32362857Y-38364285D01*
X33562857Y-38878571D02*
X32934285Y-38878571D01*
X32820000Y-38821428D01*
X32762857Y-38707142D01*
X32762857Y-38535714D01*
X32820000Y-38421428D01*
X32877142Y-38364285D01*
X32762857Y-39964285D02*
X33562857Y-39964285D01*
X32762857Y-39450000D02*
X33391428Y-39450000D01*
X33505714Y-39507142D01*
X33562857Y-39621428D01*
X33562857Y-39792857D01*
X33505714Y-39907142D01*
X33448571Y-39964285D01*
X33562857Y-40535714D02*
X32362857Y-40535714D01*
X32820000Y-40535714D02*
X32762857Y-40650000D01*
X32762857Y-40878571D01*
X32820000Y-40992857D01*
X32877142Y-41050000D01*
X32991428Y-41107142D01*
X33334285Y-41107142D01*
X33448571Y-41050000D01*
X33505714Y-40992857D01*
X33562857Y-40878571D01*
X33562857Y-40650000D01*
X33505714Y-40535714D01*
X33448571Y-41621428D02*
X33505714Y-41678571D01*
X33562857Y-41621428D01*
X33505714Y-41564285D01*
X33448571Y-41621428D01*
X33562857Y-41621428D01*
X32820000Y-41621428D02*
X32877142Y-41678571D01*
X32934285Y-41621428D01*
X32877142Y-41564285D01*
X32820000Y-41621428D01*
X32934285Y-41621428D01*
X33220000Y-43050000D02*
X33220000Y-43621428D01*
X33562857Y-42935714D02*
X32362857Y-43335714D01*
X33562857Y-43735714D01*
X32762857Y-44650000D02*
X33562857Y-44650000D01*
X32762857Y-44135714D02*
X33391428Y-44135714D01*
X33505714Y-44192857D01*
X33562857Y-44307142D01*
X33562857Y-44478571D01*
X33505714Y-44592857D01*
X33448571Y-44650000D01*
X32762857Y-45735714D02*
X33734285Y-45735714D01*
X33848571Y-45678571D01*
X33905714Y-45621428D01*
X33962857Y-45507142D01*
X33962857Y-45335714D01*
X33905714Y-45221428D01*
X33505714Y-45735714D02*
X33562857Y-45621428D01*
X33562857Y-45392857D01*
X33505714Y-45278571D01*
X33448571Y-45221428D01*
X33334285Y-45164285D01*
X32991428Y-45164285D01*
X32877142Y-45221428D01*
X32820000Y-45278571D01*
X32762857Y-45392857D01*
X32762857Y-45621428D01*
X32820000Y-45735714D01*
X32762857Y-46821428D02*
X33562857Y-46821428D01*
X32762857Y-46307142D02*
X33391428Y-46307142D01*
X33505714Y-46364285D01*
X33562857Y-46478571D01*
X33562857Y-46650000D01*
X33505714Y-46764285D01*
X33448571Y-46821428D01*
X33505714Y-47335714D02*
X33562857Y-47450000D01*
X33562857Y-47678571D01*
X33505714Y-47792857D01*
X33391428Y-47850000D01*
X33334285Y-47850000D01*
X33220000Y-47792857D01*
X33162857Y-47678571D01*
X33162857Y-47507142D01*
X33105714Y-47392857D01*
X32991428Y-47335714D01*
X32934285Y-47335714D01*
X32820000Y-47392857D01*
X32762857Y-47507142D01*
X32762857Y-47678571D01*
X32820000Y-47792857D01*
X32762857Y-48192857D02*
X32762857Y-48650000D01*
X32362857Y-48364285D02*
X33391428Y-48364285D01*
X33505714Y-48421428D01*
X33562857Y-48535714D01*
X33562857Y-48650000D01*
X33562857Y-49221428D02*
X33505714Y-49107142D01*
X33448571Y-49050000D01*
X33334285Y-48992857D01*
X32991428Y-48992857D01*
X32877142Y-49050000D01*
X32820000Y-49107142D01*
X32762857Y-49221428D01*
X32762857Y-49392857D01*
X32820000Y-49507142D01*
X32877142Y-49564285D01*
X32991428Y-49621428D01*
X33334285Y-49621428D01*
X33448571Y-49564285D01*
X33505714Y-49507142D01*
X33562857Y-49392857D01*
X33562857Y-49221428D01*
X33505714Y-50078571D02*
X33562857Y-50250000D01*
X33562857Y-50535714D01*
X33505714Y-50650000D01*
X33448571Y-50707142D01*
X33334285Y-50764285D01*
X33220000Y-50764285D01*
X33105714Y-50707142D01*
X33048571Y-50650000D01*
X32991428Y-50535714D01*
X32934285Y-50307142D01*
X32877142Y-50192857D01*
X32820000Y-50135714D01*
X32705714Y-50078571D01*
X32591428Y-50078571D01*
X32477142Y-50135714D01*
X32420000Y-50192857D01*
X32362857Y-50307142D01*
X32362857Y-50592857D01*
X32420000Y-50764285D01*
X33562857Y-51335714D02*
X33562857Y-51564285D01*
X33505714Y-51678571D01*
X33448571Y-51735714D01*
X33277142Y-51850000D01*
X33048571Y-51907142D01*
X32591428Y-51907142D01*
X32477142Y-51850000D01*
X32420000Y-51792857D01*
X32362857Y-51678571D01*
X32362857Y-51450000D01*
X32420000Y-51335714D01*
X32477142Y-51278571D01*
X32591428Y-51221428D01*
X32877142Y-51221428D01*
X32991428Y-51278571D01*
X33048571Y-51335714D01*
X33105714Y-51450000D01*
X33105714Y-51678571D01*
X33048571Y-51792857D01*
X32991428Y-51850000D01*
X32877142Y-51907142D01*
X32362857Y-52307142D02*
X32362857Y-53107142D01*
X33562857Y-52592857D01*
D11*
X31530857Y-36862714D02*
X30959428Y-36462714D01*
X31530857Y-36177000D02*
X30330857Y-36177000D01*
X30330857Y-36634142D01*
X30388000Y-36748428D01*
X30445142Y-36805571D01*
X30559428Y-36862714D01*
X30730857Y-36862714D01*
X30845142Y-36805571D01*
X30902285Y-36748428D01*
X30959428Y-36634142D01*
X30959428Y-36177000D01*
X31530857Y-37891285D02*
X30902285Y-37891285D01*
X30788000Y-37834142D01*
X30730857Y-37719857D01*
X30730857Y-37491285D01*
X30788000Y-37377000D01*
X31473714Y-37891285D02*
X31530857Y-37777000D01*
X31530857Y-37491285D01*
X31473714Y-37377000D01*
X31359428Y-37319857D01*
X31245142Y-37319857D01*
X31130857Y-37377000D01*
X31073714Y-37491285D01*
X31073714Y-37777000D01*
X31016571Y-37891285D01*
X31530857Y-38977000D02*
X30330857Y-38977000D01*
X31473714Y-38977000D02*
X31530857Y-38862714D01*
X31530857Y-38634142D01*
X31473714Y-38519857D01*
X31416571Y-38462714D01*
X31302285Y-38405571D01*
X30959428Y-38405571D01*
X30845142Y-38462714D01*
X30788000Y-38519857D01*
X30730857Y-38634142D01*
X30730857Y-38862714D01*
X30788000Y-38977000D01*
X31530857Y-39548428D02*
X30730857Y-39548428D01*
X30330857Y-39548428D02*
X30388000Y-39491285D01*
X30445142Y-39548428D01*
X30388000Y-39605571D01*
X30330857Y-39548428D01*
X30445142Y-39548428D01*
X31530857Y-40291285D02*
X31473714Y-40177000D01*
X31416571Y-40119857D01*
X31302285Y-40062714D01*
X30959428Y-40062714D01*
X30845142Y-40119857D01*
X30788000Y-40177000D01*
X30730857Y-40291285D01*
X30730857Y-40462714D01*
X30788000Y-40577000D01*
X30845142Y-40634142D01*
X30959428Y-40691285D01*
X31302285Y-40691285D01*
X31416571Y-40634142D01*
X31473714Y-40577000D01*
X31530857Y-40462714D01*
X31530857Y-40291285D01*
X31473714Y-42062714D02*
X31530857Y-42177000D01*
X31530857Y-42405571D01*
X31473714Y-42519857D01*
X31359428Y-42577000D01*
X31302285Y-42577000D01*
X31188000Y-42519857D01*
X31130857Y-42405571D01*
X31130857Y-42234142D01*
X31073714Y-42119857D01*
X30959428Y-42062714D01*
X30902285Y-42062714D01*
X30788000Y-42119857D01*
X30730857Y-42234142D01*
X30730857Y-42405571D01*
X30788000Y-42519857D01*
X30730857Y-42977000D02*
X31530857Y-43205571D01*
X30959428Y-43434142D01*
X31530857Y-43662714D01*
X30730857Y-43891285D01*
X31530857Y-44348428D02*
X30730857Y-44348428D01*
X30330857Y-44348428D02*
X30388000Y-44291285D01*
X30445142Y-44348428D01*
X30388000Y-44405571D01*
X30330857Y-44348428D01*
X30445142Y-44348428D01*
X30730857Y-44748428D02*
X30730857Y-45205571D01*
X30330857Y-44919857D02*
X31359428Y-44919857D01*
X31473714Y-44977000D01*
X31530857Y-45091285D01*
X31530857Y-45205571D01*
X31473714Y-46119857D02*
X31530857Y-46005571D01*
X31530857Y-45777000D01*
X31473714Y-45662714D01*
X31416571Y-45605571D01*
X31302285Y-45548428D01*
X30959428Y-45548428D01*
X30845142Y-45605571D01*
X30788000Y-45662714D01*
X30730857Y-45777000D01*
X30730857Y-46005571D01*
X30788000Y-46119857D01*
X31530857Y-46634142D02*
X30330857Y-46634142D01*
X31530857Y-47148428D02*
X30902285Y-47148428D01*
X30788000Y-47091285D01*
X30730857Y-46976999D01*
X30730857Y-46805571D01*
X30788000Y-46691285D01*
X30845142Y-46634142D01*
X30730857Y-48634142D02*
X31930857Y-48634142D01*
X30788000Y-48634142D02*
X30730857Y-48748428D01*
X30730857Y-48976999D01*
X30788000Y-49091285D01*
X30845142Y-49148428D01*
X30959428Y-49205571D01*
X31302285Y-49205571D01*
X31416571Y-49148428D01*
X31473714Y-49091285D01*
X31530857Y-48976999D01*
X31530857Y-48748428D01*
X31473714Y-48634142D01*
X31530857Y-50234142D02*
X30902285Y-50234142D01*
X30788000Y-50176999D01*
X30730857Y-50062714D01*
X30730857Y-49834142D01*
X30788000Y-49719857D01*
X31473714Y-50234142D02*
X31530857Y-50119857D01*
X31530857Y-49834142D01*
X31473714Y-49719857D01*
X31359428Y-49662714D01*
X31245142Y-49662714D01*
X31130857Y-49719857D01*
X31073714Y-49834142D01*
X31073714Y-50119857D01*
X31016571Y-50234142D01*
X30730857Y-50805571D02*
X31530857Y-50805571D01*
X30845142Y-50805571D02*
X30788000Y-50862714D01*
X30730857Y-50976999D01*
X30730857Y-51148428D01*
X30788000Y-51262714D01*
X30902285Y-51319857D01*
X31530857Y-51319857D01*
X31473714Y-52348428D02*
X31530857Y-52234142D01*
X31530857Y-52005571D01*
X31473714Y-51891285D01*
X31359428Y-51834142D01*
X30902285Y-51834142D01*
X30788000Y-51891285D01*
X30730857Y-52005571D01*
X30730857Y-52234142D01*
X30788000Y-52348428D01*
X30902285Y-52405571D01*
X31016571Y-52405571D01*
X31130857Y-51834142D01*
X31530857Y-53091285D02*
X31473714Y-52976999D01*
X31359428Y-52919857D01*
X30330857Y-52919857D01*
D12*
X49203809Y-63031666D02*
X48727619Y-63031666D01*
X49299047Y-63317380D02*
X48965714Y-62317380D01*
X48632380Y-63317380D01*
X47870476Y-62650714D02*
X47870476Y-63317380D01*
X48299047Y-62650714D02*
X48299047Y-63174523D01*
X48251428Y-63269761D01*
X48156190Y-63317380D01*
X48013333Y-63317380D01*
X47918095Y-63269761D01*
X47870476Y-63222142D01*
X46965714Y-62650714D02*
X46965714Y-63460238D01*
X47013333Y-63555476D01*
X47060952Y-63603095D01*
X47156190Y-63650714D01*
X47299047Y-63650714D01*
X47394285Y-63603095D01*
X46965714Y-63269761D02*
X47060952Y-63317380D01*
X47251428Y-63317380D01*
X47346666Y-63269761D01*
X47394285Y-63222142D01*
X47441904Y-63126904D01*
X47441904Y-62841190D01*
X47394285Y-62745952D01*
X47346666Y-62698333D01*
X47251428Y-62650714D01*
X47060952Y-62650714D01*
X46965714Y-62698333D01*
X46060952Y-62650714D02*
X46060952Y-63317380D01*
X46489523Y-62650714D02*
X46489523Y-63174523D01*
X46441904Y-63269761D01*
X46346666Y-63317380D01*
X46203809Y-63317380D01*
X46108571Y-63269761D01*
X46060952Y-63222142D01*
X45632380Y-63269761D02*
X45537142Y-63317380D01*
X45346666Y-63317380D01*
X45251428Y-63269761D01*
X45203809Y-63174523D01*
X45203809Y-63126904D01*
X45251428Y-63031666D01*
X45346666Y-62984047D01*
X45489523Y-62984047D01*
X45584761Y-62936428D01*
X45632380Y-62841190D01*
X45632380Y-62793571D01*
X45584761Y-62698333D01*
X45489523Y-62650714D01*
X45346666Y-62650714D01*
X45251428Y-62698333D01*
X44918095Y-62650714D02*
X44537142Y-62650714D01*
X44775238Y-62317380D02*
X44775238Y-63174523D01*
X44727619Y-63269761D01*
X44632380Y-63317380D01*
X44537142Y-63317380D01*
X44060952Y-63317380D02*
X44156190Y-63269761D01*
X44203809Y-63222142D01*
X44251428Y-63126904D01*
X44251428Y-62841190D01*
X44203809Y-62745952D01*
X44156190Y-62698333D01*
X44060952Y-62650714D01*
X43918095Y-62650714D01*
X43822857Y-62698333D01*
X43775238Y-62745952D01*
X43727619Y-62841190D01*
X43727619Y-63126904D01*
X43775238Y-63222142D01*
X43822857Y-63269761D01*
X43918095Y-63317380D01*
X44060952Y-63317380D01*
X42584761Y-63269761D02*
X42441904Y-63317380D01*
X42203809Y-63317380D01*
X42108571Y-63269761D01*
X42060952Y-63222142D01*
X42013333Y-63126904D01*
X42013333Y-63031666D01*
X42060952Y-62936428D01*
X42108571Y-62888809D01*
X42203809Y-62841190D01*
X42394285Y-62793571D01*
X42489523Y-62745952D01*
X42537142Y-62698333D01*
X42584761Y-62603095D01*
X42584761Y-62507857D01*
X42537142Y-62412619D01*
X42489523Y-62365000D01*
X42394285Y-62317380D01*
X42156190Y-62317380D01*
X42013333Y-62365000D01*
X41584761Y-63222142D02*
X41537142Y-63269761D01*
X41584761Y-63317380D01*
X41632380Y-63269761D01*
X41584761Y-63222142D01*
X41584761Y-63317380D01*
X40346666Y-63317380D02*
X40346666Y-62317380D01*
X40346666Y-62793571D02*
X39775238Y-62793571D01*
X39775238Y-63317380D02*
X39775238Y-62317380D01*
X38870476Y-63317380D02*
X38870476Y-62317380D01*
X38870476Y-63269761D02*
X38965714Y-63317380D01*
X39156190Y-63317380D01*
X39251428Y-63269761D01*
X39299047Y-63222142D01*
X39346666Y-63126904D01*
X39346666Y-62841190D01*
X39299047Y-62745952D01*
X39251428Y-62698333D01*
X39156190Y-62650714D01*
X38965714Y-62650714D01*
X38870476Y-62698333D01*
X38013333Y-63269761D02*
X38108571Y-63317380D01*
X38299047Y-63317380D01*
X38394285Y-63269761D01*
X38441904Y-63174523D01*
X38441904Y-62793571D01*
X38394285Y-62698333D01*
X38299047Y-62650714D01*
X38108571Y-62650714D01*
X38013333Y-62698333D01*
X37965714Y-62793571D01*
X37965714Y-62888809D01*
X38441904Y-62984047D01*
X37632380Y-62650714D02*
X37108571Y-62650714D01*
X37632380Y-63317380D01*
X37108571Y-63317380D01*
D13*
%TO.C,R3*%
X36930000Y-42640000D02*
X34190000Y-42640000D01*
X34190000Y-42640000D02*
X34190000Y-36100000D01*
X34190000Y-36100000D02*
X36930000Y-36100000D01*
X36930000Y-36100000D02*
X36930000Y-42640000D01*
X35560000Y-43410000D02*
X35560000Y-42640000D01*
X35560000Y-35330000D02*
X35560000Y-36100000D01*
%TO.C,R2*%
X50070000Y-29310000D02*
X50070000Y-26570000D01*
X50070000Y-26570000D02*
X56610000Y-26570000D01*
X56610000Y-26570000D02*
X56610000Y-29310000D01*
X56610000Y-29310000D02*
X50070000Y-29310000D01*
X49300000Y-27940000D02*
X50070000Y-27940000D01*
X57380000Y-27940000D02*
X56610000Y-27940000D01*
%TO.C,R1*%
X50070000Y-58520000D02*
X50070000Y-55780000D01*
X50070000Y-55780000D02*
X56610000Y-55780000D01*
X56610000Y-55780000D02*
X56610000Y-58520000D01*
X56610000Y-58520000D02*
X50070000Y-58520000D01*
X49300000Y-57150000D02*
X50070000Y-57150000D01*
X57380000Y-57150000D02*
X56610000Y-57150000D01*
%TO.C,C9*%
X165600000Y-52220000D02*
X169640000Y-52220000D01*
X165600000Y-49380000D02*
X169640000Y-49380000D01*
X165600000Y-52220000D02*
X165600000Y-51595000D01*
X165600000Y-50005000D02*
X165600000Y-49380000D01*
X169640000Y-52220000D02*
X169640000Y-51595000D01*
X169640000Y-50005000D02*
X169640000Y-49380000D01*
%TO.C,C8*%
X150360000Y-52220000D02*
X154400000Y-52220000D01*
X150360000Y-49380000D02*
X154400000Y-49380000D01*
X150360000Y-52220000D02*
X150360000Y-51595000D01*
X150360000Y-50005000D02*
X150360000Y-49380000D01*
X154400000Y-52220000D02*
X154400000Y-51595000D01*
X154400000Y-50005000D02*
X154400000Y-49380000D01*
%TO.C,C7*%
X137660000Y-52220000D02*
X141700000Y-52220000D01*
X137660000Y-49380000D02*
X141700000Y-49380000D01*
X137660000Y-52220000D02*
X137660000Y-51595000D01*
X137660000Y-50005000D02*
X137660000Y-49380000D01*
X141700000Y-52220000D02*
X141700000Y-51595000D01*
X141700000Y-50005000D02*
X141700000Y-49380000D01*
%TO.C,C6*%
X123690000Y-52220000D02*
X127730000Y-52220000D01*
X123690000Y-49380000D02*
X127730000Y-49380000D01*
X123690000Y-52220000D02*
X123690000Y-51595000D01*
X123690000Y-50005000D02*
X123690000Y-49380000D01*
X127730000Y-52220000D02*
X127730000Y-51595000D01*
X127730000Y-50005000D02*
X127730000Y-49380000D01*
%TO.C,C5*%
X108450000Y-52220000D02*
X112490000Y-52220000D01*
X108450000Y-49380000D02*
X112490000Y-49380000D01*
X108450000Y-52220000D02*
X108450000Y-51595000D01*
X108450000Y-50005000D02*
X108450000Y-49380000D01*
X112490000Y-52220000D02*
X112490000Y-51595000D01*
X112490000Y-50005000D02*
X112490000Y-49380000D01*
%TO.C,C4*%
X94480000Y-52220000D02*
X98520000Y-52220000D01*
X94480000Y-49380000D02*
X98520000Y-49380000D01*
X94480000Y-52220000D02*
X94480000Y-51595000D01*
X94480000Y-50005000D02*
X94480000Y-49380000D01*
X98520000Y-52220000D02*
X98520000Y-51595000D01*
X98520000Y-50005000D02*
X98520000Y-49380000D01*
%TO.C,C2*%
X80510000Y-52220000D02*
X84550000Y-52220000D01*
X80510000Y-49380000D02*
X84550000Y-49380000D01*
X80510000Y-52220000D02*
X80510000Y-51595000D01*
X80510000Y-50005000D02*
X80510000Y-49380000D01*
X84550000Y-52220000D02*
X84550000Y-51595000D01*
X84550000Y-50005000D02*
X84550000Y-49380000D01*
%TO.C,C1*%
X66540000Y-52220000D02*
X70580000Y-52220000D01*
X66540000Y-49380000D02*
X70580000Y-49380000D01*
X66540000Y-52220000D02*
X66540000Y-51595000D01*
X66540000Y-50005000D02*
X66540000Y-49380000D01*
X70580000Y-52220000D02*
X70580000Y-51595000D01*
X70580000Y-50005000D02*
X70580000Y-49380000D01*
%TO.C,J1*%
X95190000Y-62290000D02*
X95190000Y-57090000D01*
X130810000Y-62290000D02*
X95190000Y-62290000D01*
X133410000Y-57090000D02*
X95190000Y-57090000D01*
X130810000Y-62290000D02*
X130810000Y-59690000D01*
X130810000Y-59690000D02*
X133410000Y-59690000D01*
X133410000Y-59690000D02*
X133410000Y-57090000D01*
X132080000Y-62290000D02*
X133410000Y-62290000D01*
X133410000Y-62290000D02*
X133410000Y-60960000D01*
%TO.C,C3*%
X52570000Y-52220000D02*
X56610000Y-52220000D01*
X52570000Y-49380000D02*
X56610000Y-49380000D01*
X52570000Y-52220000D02*
X52570000Y-51595000D01*
X52570000Y-50005000D02*
X52570000Y-49380000D01*
X56610000Y-52220000D02*
X56610000Y-51595000D01*
X56610000Y-50005000D02*
X56610000Y-49380000D01*
%TO.C,R3*%
D10*
X37477619Y-39536666D02*
X37953809Y-39870000D01*
X37477619Y-40108095D02*
X38477619Y-40108095D01*
X38477619Y-39727142D01*
X38430000Y-39631904D01*
X38382380Y-39584285D01*
X38287142Y-39536666D01*
X38144285Y-39536666D01*
X38049047Y-39584285D01*
X38001428Y-39631904D01*
X37953809Y-39727142D01*
X37953809Y-40108095D01*
X38477619Y-39203333D02*
X38477619Y-38584285D01*
X38096666Y-38917619D01*
X38096666Y-38774761D01*
X38049047Y-38679523D01*
X38001428Y-38631904D01*
X37906190Y-38584285D01*
X37668095Y-38584285D01*
X37572857Y-38631904D01*
X37525238Y-38679523D01*
X37477619Y-38774761D01*
X37477619Y-39060476D01*
X37525238Y-39155714D01*
X37572857Y-39203333D01*
%TO.C,R2*%
X53506666Y-30762380D02*
X53840000Y-30286190D01*
X54078095Y-30762380D02*
X54078095Y-29762380D01*
X53697142Y-29762380D01*
X53601904Y-29810000D01*
X53554285Y-29857619D01*
X53506666Y-29952857D01*
X53506666Y-30095714D01*
X53554285Y-30190952D01*
X53601904Y-30238571D01*
X53697142Y-30286190D01*
X54078095Y-30286190D01*
X53125714Y-29857619D02*
X53078095Y-29810000D01*
X52982857Y-29762380D01*
X52744761Y-29762380D01*
X52649523Y-29810000D01*
X52601904Y-29857619D01*
X52554285Y-29952857D01*
X52554285Y-30048095D01*
X52601904Y-30190952D01*
X53173333Y-30762380D01*
X52554285Y-30762380D01*
%TO.C,R1*%
X53506666Y-59972380D02*
X53840000Y-59496190D01*
X54078095Y-59972380D02*
X54078095Y-58972380D01*
X53697142Y-58972380D01*
X53601904Y-59020000D01*
X53554285Y-59067619D01*
X53506666Y-59162857D01*
X53506666Y-59305714D01*
X53554285Y-59400952D01*
X53601904Y-59448571D01*
X53697142Y-59496190D01*
X54078095Y-59496190D01*
X52554285Y-59972380D02*
X53125714Y-59972380D01*
X52840000Y-59972380D02*
X52840000Y-58972380D01*
X52935238Y-59115238D01*
X53030476Y-59210476D01*
X53125714Y-59258095D01*
%TO.C,C9*%
X167786666Y-53707142D02*
X167834285Y-53754761D01*
X167977142Y-53802380D01*
X168072380Y-53802380D01*
X168215238Y-53754761D01*
X168310476Y-53659523D01*
X168358095Y-53564285D01*
X168405714Y-53373809D01*
X168405714Y-53230952D01*
X168358095Y-53040476D01*
X168310476Y-52945238D01*
X168215238Y-52850000D01*
X168072380Y-52802380D01*
X167977142Y-52802380D01*
X167834285Y-52850000D01*
X167786666Y-52897619D01*
X167310476Y-53802380D02*
X167120000Y-53802380D01*
X167024761Y-53754761D01*
X166977142Y-53707142D01*
X166881904Y-53564285D01*
X166834285Y-53373809D01*
X166834285Y-52992857D01*
X166881904Y-52897619D01*
X166929523Y-52850000D01*
X167024761Y-52802380D01*
X167215238Y-52802380D01*
X167310476Y-52850000D01*
X167358095Y-52897619D01*
X167405714Y-52992857D01*
X167405714Y-53230952D01*
X167358095Y-53326190D01*
X167310476Y-53373809D01*
X167215238Y-53421428D01*
X167024761Y-53421428D01*
X166929523Y-53373809D01*
X166881904Y-53326190D01*
X166834285Y-53230952D01*
%TO.C,C8*%
X152546666Y-53707142D02*
X152594285Y-53754761D01*
X152737142Y-53802380D01*
X152832380Y-53802380D01*
X152975238Y-53754761D01*
X153070476Y-53659523D01*
X153118095Y-53564285D01*
X153165714Y-53373809D01*
X153165714Y-53230952D01*
X153118095Y-53040476D01*
X153070476Y-52945238D01*
X152975238Y-52850000D01*
X152832380Y-52802380D01*
X152737142Y-52802380D01*
X152594285Y-52850000D01*
X152546666Y-52897619D01*
X151975238Y-53230952D02*
X152070476Y-53183333D01*
X152118095Y-53135714D01*
X152165714Y-53040476D01*
X152165714Y-52992857D01*
X152118095Y-52897619D01*
X152070476Y-52850000D01*
X151975238Y-52802380D01*
X151784761Y-52802380D01*
X151689523Y-52850000D01*
X151641904Y-52897619D01*
X151594285Y-52992857D01*
X151594285Y-53040476D01*
X151641904Y-53135714D01*
X151689523Y-53183333D01*
X151784761Y-53230952D01*
X151975238Y-53230952D01*
X152070476Y-53278571D01*
X152118095Y-53326190D01*
X152165714Y-53421428D01*
X152165714Y-53611904D01*
X152118095Y-53707142D01*
X152070476Y-53754761D01*
X151975238Y-53802380D01*
X151784761Y-53802380D01*
X151689523Y-53754761D01*
X151641904Y-53707142D01*
X151594285Y-53611904D01*
X151594285Y-53421428D01*
X151641904Y-53326190D01*
X151689523Y-53278571D01*
X151784761Y-53230952D01*
%TO.C,C7*%
X139846666Y-53707142D02*
X139894285Y-53754761D01*
X140037142Y-53802380D01*
X140132380Y-53802380D01*
X140275238Y-53754761D01*
X140370476Y-53659523D01*
X140418095Y-53564285D01*
X140465714Y-53373809D01*
X140465714Y-53230952D01*
X140418095Y-53040476D01*
X140370476Y-52945238D01*
X140275238Y-52850000D01*
X140132380Y-52802380D01*
X140037142Y-52802380D01*
X139894285Y-52850000D01*
X139846666Y-52897619D01*
X139513333Y-52802380D02*
X138846666Y-52802380D01*
X139275238Y-53802380D01*
%TO.C,C6*%
X125876666Y-53707142D02*
X125924285Y-53754761D01*
X126067142Y-53802380D01*
X126162380Y-53802380D01*
X126305238Y-53754761D01*
X126400476Y-53659523D01*
X126448095Y-53564285D01*
X126495714Y-53373809D01*
X126495714Y-53230952D01*
X126448095Y-53040476D01*
X126400476Y-52945238D01*
X126305238Y-52850000D01*
X126162380Y-52802380D01*
X126067142Y-52802380D01*
X125924285Y-52850000D01*
X125876666Y-52897619D01*
X125019523Y-52802380D02*
X125210000Y-52802380D01*
X125305238Y-52850000D01*
X125352857Y-52897619D01*
X125448095Y-53040476D01*
X125495714Y-53230952D01*
X125495714Y-53611904D01*
X125448095Y-53707142D01*
X125400476Y-53754761D01*
X125305238Y-53802380D01*
X125114761Y-53802380D01*
X125019523Y-53754761D01*
X124971904Y-53707142D01*
X124924285Y-53611904D01*
X124924285Y-53373809D01*
X124971904Y-53278571D01*
X125019523Y-53230952D01*
X125114761Y-53183333D01*
X125305238Y-53183333D01*
X125400476Y-53230952D01*
X125448095Y-53278571D01*
X125495714Y-53373809D01*
%TO.C,C5*%
X110636666Y-53707142D02*
X110684285Y-53754761D01*
X110827142Y-53802380D01*
X110922380Y-53802380D01*
X111065238Y-53754761D01*
X111160476Y-53659523D01*
X111208095Y-53564285D01*
X111255714Y-53373809D01*
X111255714Y-53230952D01*
X111208095Y-53040476D01*
X111160476Y-52945238D01*
X111065238Y-52850000D01*
X110922380Y-52802380D01*
X110827142Y-52802380D01*
X110684285Y-52850000D01*
X110636666Y-52897619D01*
X109731904Y-52802380D02*
X110208095Y-52802380D01*
X110255714Y-53278571D01*
X110208095Y-53230952D01*
X110112857Y-53183333D01*
X109874761Y-53183333D01*
X109779523Y-53230952D01*
X109731904Y-53278571D01*
X109684285Y-53373809D01*
X109684285Y-53611904D01*
X109731904Y-53707142D01*
X109779523Y-53754761D01*
X109874761Y-53802380D01*
X110112857Y-53802380D01*
X110208095Y-53754761D01*
X110255714Y-53707142D01*
%TO.C,C4*%
X96666666Y-53707142D02*
X96714285Y-53754761D01*
X96857142Y-53802380D01*
X96952380Y-53802380D01*
X97095238Y-53754761D01*
X97190476Y-53659523D01*
X97238095Y-53564285D01*
X97285714Y-53373809D01*
X97285714Y-53230952D01*
X97238095Y-53040476D01*
X97190476Y-52945238D01*
X97095238Y-52850000D01*
X96952380Y-52802380D01*
X96857142Y-52802380D01*
X96714285Y-52850000D01*
X96666666Y-52897619D01*
X95809523Y-53135714D02*
X95809523Y-53802380D01*
X96047619Y-52754761D02*
X96285714Y-53469047D01*
X95666666Y-53469047D01*
%TO.C,C2*%
X82696666Y-53707142D02*
X82744285Y-53754761D01*
X82887142Y-53802380D01*
X82982380Y-53802380D01*
X83125238Y-53754761D01*
X83220476Y-53659523D01*
X83268095Y-53564285D01*
X83315714Y-53373809D01*
X83315714Y-53230952D01*
X83268095Y-53040476D01*
X83220476Y-52945238D01*
X83125238Y-52850000D01*
X82982380Y-52802380D01*
X82887142Y-52802380D01*
X82744285Y-52850000D01*
X82696666Y-52897619D01*
X82315714Y-52897619D02*
X82268095Y-52850000D01*
X82172857Y-52802380D01*
X81934761Y-52802380D01*
X81839523Y-52850000D01*
X81791904Y-52897619D01*
X81744285Y-52992857D01*
X81744285Y-53088095D01*
X81791904Y-53230952D01*
X82363333Y-53802380D01*
X81744285Y-53802380D01*
%TO.C,C1*%
X68726666Y-53707142D02*
X68774285Y-53754761D01*
X68917142Y-53802380D01*
X69012380Y-53802380D01*
X69155238Y-53754761D01*
X69250476Y-53659523D01*
X69298095Y-53564285D01*
X69345714Y-53373809D01*
X69345714Y-53230952D01*
X69298095Y-53040476D01*
X69250476Y-52945238D01*
X69155238Y-52850000D01*
X69012380Y-52802380D01*
X68917142Y-52802380D01*
X68774285Y-52850000D01*
X68726666Y-52897619D01*
X67774285Y-53802380D02*
X68345714Y-53802380D01*
X68060000Y-53802380D02*
X68060000Y-52802380D01*
X68155238Y-52945238D01*
X68250476Y-53040476D01*
X68345714Y-53088095D01*
%TO.C,J1*%
X133862380Y-59356666D02*
X134576666Y-59356666D01*
X134719523Y-59309047D01*
X134814761Y-59213809D01*
X134862380Y-59070952D01*
X134862380Y-58975714D01*
X134862380Y-60356666D02*
X134862380Y-59785238D01*
X134862380Y-60070952D02*
X133862380Y-60070952D01*
X134005238Y-59975714D01*
X134100476Y-59880476D01*
X134148095Y-59785238D01*
%TO.C,C3*%
X54903666Y-48744142D02*
X54951285Y-48791761D01*
X55094142Y-48839380D01*
X55189380Y-48839380D01*
X55332238Y-48791761D01*
X55427476Y-48696523D01*
X55475095Y-48601285D01*
X55522714Y-48410809D01*
X55522714Y-48267952D01*
X55475095Y-48077476D01*
X55427476Y-47982238D01*
X55332238Y-47887000D01*
X55189380Y-47839380D01*
X55094142Y-47839380D01*
X54951285Y-47887000D01*
X54903666Y-47934619D01*
X54570333Y-47839380D02*
X53951285Y-47839380D01*
X54284619Y-48220333D01*
X54141761Y-48220333D01*
X54046523Y-48267952D01*
X53998904Y-48315571D01*
X53951285Y-48410809D01*
X53951285Y-48648904D01*
X53998904Y-48744142D01*
X54046523Y-48791761D01*
X54141761Y-48839380D01*
X54427476Y-48839380D01*
X54522714Y-48791761D01*
X54570333Y-48744142D01*
%TD*%
M02*
