M48
; DRILL file {KiCad (5.1.9)-1} date 09/28/21 20:53:48
; FORMAT={-:-/ absolute / metric / decimal}
; #@! TF.CreationDate,2021-09-28T20:53:48+01:00
; #@! TF.GenerationSoftware,Kicad,Pcbnew,(5.1.9)-1
FMAT,2
METRIC
T1C0.400
T2C0.800
T3C0.850
T4C0.900
T5C1.000
T6C1.500
T7C3.200
%
G90
G05
T1
X96.775Y-56.093
T2
X35.56Y-34.29
X35.56Y-44.45
X48.26Y-27.94
X48.26Y-57.15
X53.34Y-50.8
X55.84Y-50.8
X58.42Y-27.94
X58.42Y-57.15
X67.31Y-50.8
X69.81Y-50.8
X81.28Y-50.8
X83.78Y-50.8
X95.25Y-50.8
X97.75Y-50.8
X109.22Y-50.8
X111.72Y-50.8
X124.46Y-50.8
X126.96Y-50.8
X138.43Y-50.8
X140.93Y-50.8
X151.13Y-50.8
X153.63Y-50.8
X166.37Y-50.8
X168.87Y-50.8
T3
X53.0Y-38.9
X53.0Y-40.9
X53.0Y-42.9
X67.0Y-38.9
X67.0Y-40.9
X67.0Y-42.9
X81.0Y-38.9
X81.0Y-40.9
X81.0Y-42.9
X95.0Y-38.9
X95.0Y-40.9
X95.0Y-42.9
X109.0Y-38.9
X109.0Y-40.9
X109.0Y-42.9
X123.0Y-38.9
X123.0Y-40.9
X123.0Y-42.9
X137.0Y-38.9
X137.0Y-40.9
X137.0Y-42.9
X151.13Y-38.9
X151.13Y-40.9
X151.13Y-42.9
X165.0Y-38.9
X165.0Y-40.9
X165.0Y-42.9
T4
X40.64Y-31.75
X40.64Y-43.18
X40.64Y-55.88
X43.18Y-31.75
X43.18Y-43.18
X43.18Y-55.88
T5
X96.52Y-58.42
X96.52Y-60.96
X99.06Y-58.42
X99.06Y-60.96
X101.6Y-58.42
X101.6Y-60.96
X104.14Y-58.42
X104.14Y-60.96
X106.68Y-58.42
X106.68Y-60.96
X109.22Y-58.42
X109.22Y-60.96
X111.76Y-58.42
X111.76Y-60.96
X114.3Y-58.42
X114.3Y-60.96
X116.84Y-58.42
X116.84Y-60.96
X119.38Y-58.42
X119.38Y-60.96
X121.92Y-58.42
X121.92Y-60.96
X124.46Y-58.42
X124.46Y-60.96
X127.0Y-58.42
X127.0Y-60.96
X129.54Y-58.42
X129.54Y-60.96
X132.08Y-58.42
X132.08Y-60.96
T7
X34.29Y-29.21
X34.29Y-60.96
X82.55Y-58.42
X87.63Y-29.21
X138.43Y-29.21
X147.32Y-58.42
X176.53Y-29.21
X176.53Y-60.96
T6
G00X52.5Y-36.7
M15
G01X53.5Y-36.7
M16
G05
G00X52.5Y-45.1
M15
G01X53.5Y-45.1
M16
G05
G00X66.5Y-36.7
M15
G01X67.5Y-36.7
M16
G05
G00X66.5Y-45.1
M15
G01X67.5Y-45.1
M16
G05
G00X80.5Y-36.7
M15
G01X81.5Y-36.7
M16
G05
G00X80.5Y-45.1
M15
G01X81.5Y-45.1
M16
G05
G00X94.5Y-36.7
M15
G01X95.5Y-36.7
M16
G05
G00X94.5Y-45.1
M15
G01X95.5Y-45.1
M16
G05
G00X108.5Y-36.7
M15
G01X109.5Y-36.7
M16
G05
G00X108.5Y-45.1
M15
G01X109.5Y-45.1
M16
G05
G00X122.5Y-36.7
M15
G01X123.5Y-36.7
M16
G05
G00X122.5Y-45.1
M15
G01X123.5Y-45.1
M16
G05
G00X136.5Y-36.7
M15
G01X137.5Y-36.7
M16
G05
G00X136.5Y-45.1
M15
G01X137.5Y-45.1
M16
G05
G00X150.63Y-36.7
M15
G01X151.63Y-36.7
M16
G05
G00X150.63Y-45.1
M15
G01X151.63Y-45.1
M16
G05
G00X164.5Y-36.7
M15
G01X165.5Y-36.7
M16
G05
G00X164.5Y-45.1
M15
G01X165.5Y-45.1
M16
G05
T0
M30
