%TF.GenerationSoftware,KiCad,Pcbnew,(5.1.9)-1*%
%TF.CreationDate,2021-09-28T20:53:43+01:00*%
%TF.ProjectId,cessna_switch_radio,63657373-6e61-45f7-9377-697463685f72,rev?*%
%TF.SameCoordinates,Original*%
%TF.FileFunction,Soldermask,Bot*%
%TF.FilePolarity,Negative*%
%FSLAX46Y46*%
G04 Gerber Fmt 4.6, Leading zero omitted, Abs format (unit mm)*
G04 Created by KiCad (PCBNEW (5.1.9)-1) date 2021-09-28 20:53:43*
%MOMM*%
%LPD*%
G01*
G04 APERTURE LIST*
%ADD10C,3.200000*%
%ADD11O,3.500000X2.200000*%
%ADD12O,2.500000X1.500000*%
%ADD13R,2.500000X1.500000*%
%ADD14O,1.600000X1.600000*%
%ADD15C,1.600000*%
%ADD16C,1.800000*%
%ADD17R,1.800000X1.800000*%
%ADD18O,1.700000X1.700000*%
%ADD19R,1.700000X1.700000*%
G04 APERTURE END LIST*
D10*
%TO.C,REF\u002A\u002A*%
X82550000Y-58420000D03*
%TD*%
%TO.C,REF\u002A\u002A*%
X147320000Y-58420000D03*
%TD*%
%TO.C,REF\u002A\u002A*%
X138430000Y-29210000D03*
%TD*%
%TO.C,REF\u002A\u002A*%
X87630000Y-29210000D03*
%TD*%
%TO.C,REF\u002A\u002A*%
X34290000Y-29210000D03*
%TD*%
%TO.C,REF\u002A\u002A*%
X34290000Y-60960000D03*
%TD*%
%TO.C,REF\u002A\u002A*%
X176530000Y-60960000D03*
%TD*%
%TO.C,REF\u002A\u002A*%
X176530000Y-29210000D03*
%TD*%
D11*
%TO.C,SW9*%
X165000000Y-36700000D03*
X165000000Y-45100000D03*
D12*
X165000000Y-38900000D03*
X165000000Y-40900000D03*
D13*
X165000000Y-42900000D03*
%TD*%
D11*
%TO.C,SW8*%
X151130000Y-36700000D03*
X151130000Y-45100000D03*
D12*
X151130000Y-38900000D03*
X151130000Y-40900000D03*
D13*
X151130000Y-42900000D03*
%TD*%
D11*
%TO.C,SW7*%
X137000000Y-36700000D03*
X137000000Y-45100000D03*
D12*
X137000000Y-38900000D03*
X137000000Y-40900000D03*
D13*
X137000000Y-42900000D03*
%TD*%
D11*
%TO.C,SW6*%
X123000000Y-36700000D03*
X123000000Y-45100000D03*
D12*
X123000000Y-38900000D03*
X123000000Y-40900000D03*
D13*
X123000000Y-42900000D03*
%TD*%
D11*
%TO.C,SW5*%
X109000000Y-36700000D03*
X109000000Y-45100000D03*
D12*
X109000000Y-38900000D03*
X109000000Y-40900000D03*
D13*
X109000000Y-42900000D03*
%TD*%
D11*
%TO.C,SW4*%
X95000000Y-36700000D03*
X95000000Y-45100000D03*
D12*
X95000000Y-38900000D03*
X95000000Y-40900000D03*
D13*
X95000000Y-42900000D03*
%TD*%
D11*
%TO.C,SW3*%
X81000000Y-36700000D03*
X81000000Y-45100000D03*
D12*
X81000000Y-38900000D03*
X81000000Y-40900000D03*
D13*
X81000000Y-42900000D03*
%TD*%
D11*
%TO.C,SW2*%
X67000000Y-36700000D03*
X67000000Y-45100000D03*
D12*
X67000000Y-38900000D03*
X67000000Y-40900000D03*
D13*
X67000000Y-42900000D03*
%TD*%
D11*
%TO.C,SW1*%
X53000000Y-36700000D03*
X53000000Y-45100000D03*
D12*
X53000000Y-38900000D03*
X53000000Y-40900000D03*
D13*
X53000000Y-42900000D03*
%TD*%
D14*
%TO.C,R3*%
X35560000Y-34290000D03*
D15*
X35560000Y-44450000D03*
%TD*%
D14*
%TO.C,R2*%
X58420000Y-27940000D03*
D15*
X48260000Y-27940000D03*
%TD*%
D14*
%TO.C,R1*%
X58420000Y-57150000D03*
D15*
X48260000Y-57150000D03*
%TD*%
D16*
%TO.C,D3*%
X43180000Y-43180000D03*
D17*
X40640000Y-43180000D03*
%TD*%
D16*
%TO.C,D2*%
X43180000Y-31750000D03*
D17*
X40640000Y-31750000D03*
%TD*%
D16*
%TO.C,D1*%
X43180000Y-55880000D03*
D17*
X40640000Y-55880000D03*
%TD*%
D15*
%TO.C,C9*%
X168870000Y-50800000D03*
X166370000Y-50800000D03*
%TD*%
%TO.C,C8*%
X153630000Y-50800000D03*
X151130000Y-50800000D03*
%TD*%
%TO.C,C7*%
X140930000Y-50800000D03*
X138430000Y-50800000D03*
%TD*%
%TO.C,C6*%
X126960000Y-50800000D03*
X124460000Y-50800000D03*
%TD*%
%TO.C,C5*%
X111720000Y-50800000D03*
X109220000Y-50800000D03*
%TD*%
%TO.C,C4*%
X97750000Y-50800000D03*
X95250000Y-50800000D03*
%TD*%
%TO.C,C2*%
X83780000Y-50800000D03*
X81280000Y-50800000D03*
%TD*%
%TO.C,C1*%
X69810000Y-50800000D03*
X67310000Y-50800000D03*
%TD*%
D18*
%TO.C,J1*%
X96520000Y-58420000D03*
X96520000Y-60960000D03*
X99060000Y-58420000D03*
X99060000Y-60960000D03*
X101600000Y-58420000D03*
X101600000Y-60960000D03*
X104140000Y-58420000D03*
X104140000Y-60960000D03*
X106680000Y-58420000D03*
X106680000Y-60960000D03*
X109220000Y-58420000D03*
X109220000Y-60960000D03*
X111760000Y-58420000D03*
X111760000Y-60960000D03*
X114300000Y-58420000D03*
X114300000Y-60960000D03*
X116840000Y-58420000D03*
X116840000Y-60960000D03*
X119380000Y-58420000D03*
X119380000Y-60960000D03*
X121920000Y-58420000D03*
X121920000Y-60960000D03*
X124460000Y-58420000D03*
X124460000Y-60960000D03*
X127000000Y-58420000D03*
X127000000Y-60960000D03*
X129540000Y-58420000D03*
X129540000Y-60960000D03*
X132080000Y-58420000D03*
D19*
X132080000Y-60960000D03*
%TD*%
D15*
%TO.C,C3*%
X55840000Y-50800000D03*
X53340000Y-50800000D03*
%TD*%
M02*
