%TF.GenerationSoftware,KiCad,Pcbnew,(5.1.9)-1*%
%TF.CreationDate,2021-09-28T20:53:43+01:00*%
%TF.ProjectId,cessna_switch_radio,63657373-6e61-45f7-9377-697463685f72,rev?*%
%TF.SameCoordinates,Original*%
%TF.FileFunction,Legend,Top*%
%TF.FilePolarity,Positive*%
%FSLAX46Y46*%
G04 Gerber Fmt 4.6, Leading zero omitted, Abs format (unit mm)*
G04 Created by KiCad (PCBNEW (5.1.9)-1) date 2021-09-28 20:53:43*
%MOMM*%
%LPD*%
G01*
G04 APERTURE LIST*
%ADD10C,0.150000*%
%ADD11C,0.300000*%
%ADD12C,0.120000*%
G04 APERTURE END LIST*
D10*
X37785238Y-62619000D02*
X37689999Y-62571380D01*
X37547142Y-62571380D01*
X37404285Y-62619000D01*
X37309047Y-62714238D01*
X37261428Y-62809476D01*
X37213809Y-62999952D01*
X37213809Y-63142809D01*
X37261428Y-63333285D01*
X37309047Y-63428523D01*
X37404285Y-63523761D01*
X37547142Y-63571380D01*
X37642380Y-63571380D01*
X37785238Y-63523761D01*
X37832857Y-63476142D01*
X37832857Y-63142809D01*
X37642380Y-63142809D01*
X38261428Y-63571380D02*
X38261428Y-62904714D01*
X38261428Y-62571380D02*
X38213809Y-62619000D01*
X38261428Y-62666619D01*
X38309047Y-62619000D01*
X38261428Y-62571380D01*
X38261428Y-62666619D01*
X38594761Y-62904714D02*
X38975714Y-62904714D01*
X38737619Y-62571380D02*
X38737619Y-63428523D01*
X38785238Y-63523761D01*
X38880476Y-63571380D01*
X38975714Y-63571380D01*
X39309047Y-63571380D02*
X39309047Y-62571380D01*
X39737619Y-63571380D02*
X39737619Y-63047571D01*
X39689999Y-62952333D01*
X39594761Y-62904714D01*
X39451904Y-62904714D01*
X39356666Y-62952333D01*
X39309047Y-62999952D01*
X40642380Y-62904714D02*
X40642380Y-63571380D01*
X40213809Y-62904714D02*
X40213809Y-63428523D01*
X40261428Y-63523761D01*
X40356666Y-63571380D01*
X40499523Y-63571380D01*
X40594761Y-63523761D01*
X40642380Y-63476142D01*
X41118571Y-63571380D02*
X41118571Y-62571380D01*
X41118571Y-62952333D02*
X41213809Y-62904714D01*
X41404285Y-62904714D01*
X41499523Y-62952333D01*
X41547142Y-62999952D01*
X41594761Y-63095190D01*
X41594761Y-63380904D01*
X41547142Y-63476142D01*
X41499523Y-63523761D01*
X41404285Y-63571380D01*
X41213809Y-63571380D01*
X41118571Y-63523761D01*
X42023333Y-63476142D02*
X42070952Y-63523761D01*
X42023333Y-63571380D01*
X41975714Y-63523761D01*
X42023333Y-63476142D01*
X42023333Y-63571380D01*
X42023333Y-62952333D02*
X42070952Y-62999952D01*
X42023333Y-63047571D01*
X41975714Y-62999952D01*
X42023333Y-62952333D01*
X42023333Y-63047571D01*
X43213809Y-63285666D02*
X43689999Y-63285666D01*
X43118571Y-63571380D02*
X43451904Y-62571380D01*
X43785238Y-63571380D01*
X44547142Y-62904714D02*
X44547142Y-63571380D01*
X44118571Y-62904714D02*
X44118571Y-63428523D01*
X44166190Y-63523761D01*
X44261428Y-63571380D01*
X44404285Y-63571380D01*
X44499523Y-63523761D01*
X44547142Y-63476142D01*
X45451904Y-62904714D02*
X45451904Y-63714238D01*
X45404285Y-63809476D01*
X45356666Y-63857095D01*
X45261428Y-63904714D01*
X45118571Y-63904714D01*
X45023333Y-63857095D01*
X45451904Y-63523761D02*
X45356666Y-63571380D01*
X45166190Y-63571380D01*
X45070952Y-63523761D01*
X45023333Y-63476142D01*
X44975714Y-63380904D01*
X44975714Y-63095190D01*
X45023333Y-62999952D01*
X45070952Y-62952333D01*
X45166190Y-62904714D01*
X45356666Y-62904714D01*
X45451904Y-62952333D01*
X46356666Y-62904714D02*
X46356666Y-63571380D01*
X45928095Y-62904714D02*
X45928095Y-63428523D01*
X45975714Y-63523761D01*
X46070952Y-63571380D01*
X46213809Y-63571380D01*
X46309047Y-63523761D01*
X46356666Y-63476142D01*
X46785238Y-63523761D02*
X46880476Y-63571380D01*
X47070952Y-63571380D01*
X47166190Y-63523761D01*
X47213809Y-63428523D01*
X47213809Y-63380904D01*
X47166190Y-63285666D01*
X47070952Y-63238047D01*
X46928095Y-63238047D01*
X46832857Y-63190428D01*
X46785238Y-63095190D01*
X46785238Y-63047571D01*
X46832857Y-62952333D01*
X46928095Y-62904714D01*
X47070952Y-62904714D01*
X47166190Y-62952333D01*
X47499523Y-62904714D02*
X47880476Y-62904714D01*
X47642380Y-62571380D02*
X47642380Y-63428523D01*
X47689999Y-63523761D01*
X47785238Y-63571380D01*
X47880476Y-63571380D01*
X48356666Y-63571380D02*
X48261428Y-63523761D01*
X48213809Y-63476142D01*
X48166190Y-63380904D01*
X48166190Y-63095190D01*
X48213809Y-62999952D01*
X48261428Y-62952333D01*
X48356666Y-62904714D01*
X48499523Y-62904714D01*
X48594761Y-62952333D01*
X48642380Y-62999952D01*
X48689999Y-63095190D01*
X48689999Y-63380904D01*
X48642380Y-63476142D01*
X48594761Y-63523761D01*
X48499523Y-63571380D01*
X48356666Y-63571380D01*
X49070952Y-63523761D02*
X49213809Y-63571380D01*
X49451904Y-63571380D01*
X49547142Y-63523761D01*
X49594761Y-63476142D01*
X49642380Y-63380904D01*
X49642380Y-63285666D01*
X49594761Y-63190428D01*
X49547142Y-63142809D01*
X49451904Y-63095190D01*
X49261428Y-63047571D01*
X49166190Y-62999952D01*
X49118571Y-62952333D01*
X49070952Y-62857095D01*
X49070952Y-62761857D01*
X49118571Y-62666619D01*
X49166190Y-62619000D01*
X49261428Y-62571380D01*
X49499523Y-62571380D01*
X49642380Y-62619000D01*
X50118571Y-63571380D02*
X50309047Y-63571380D01*
X50404285Y-63523761D01*
X50451904Y-63476142D01*
X50547142Y-63333285D01*
X50594761Y-63142809D01*
X50594761Y-62761857D01*
X50547142Y-62666619D01*
X50499523Y-62619000D01*
X50404285Y-62571380D01*
X50213809Y-62571380D01*
X50118571Y-62619000D01*
X50070952Y-62666619D01*
X50023333Y-62761857D01*
X50023333Y-62999952D01*
X50070952Y-63095190D01*
X50118571Y-63142809D01*
X50213809Y-63190428D01*
X50404285Y-63190428D01*
X50499523Y-63142809D01*
X50547142Y-63095190D01*
X50594761Y-62999952D01*
X50928095Y-62571380D02*
X51594761Y-62571380D01*
X51166190Y-63571380D01*
X53023333Y-63952333D02*
X52975714Y-63904714D01*
X52880476Y-63761857D01*
X52832857Y-63666619D01*
X52785238Y-63523761D01*
X52737619Y-63285666D01*
X52737619Y-63095190D01*
X52785238Y-62857095D01*
X52832857Y-62714238D01*
X52880476Y-62619000D01*
X52975714Y-62476142D01*
X53023333Y-62428523D01*
X53832857Y-63571380D02*
X53832857Y-63047571D01*
X53785238Y-62952333D01*
X53689999Y-62904714D01*
X53499523Y-62904714D01*
X53404285Y-62952333D01*
X53832857Y-63523761D02*
X53737619Y-63571380D01*
X53499523Y-63571380D01*
X53404285Y-63523761D01*
X53356666Y-63428523D01*
X53356666Y-63333285D01*
X53404285Y-63238047D01*
X53499523Y-63190428D01*
X53737619Y-63190428D01*
X53832857Y-63142809D01*
X54737619Y-62904714D02*
X54737619Y-63571380D01*
X54309047Y-62904714D02*
X54309047Y-63428523D01*
X54356666Y-63523761D01*
X54451904Y-63571380D01*
X54594761Y-63571380D01*
X54689999Y-63523761D01*
X54737619Y-63476142D01*
X55642380Y-62904714D02*
X55642380Y-63714238D01*
X55594761Y-63809476D01*
X55547142Y-63857095D01*
X55451904Y-63904714D01*
X55309047Y-63904714D01*
X55213809Y-63857095D01*
X55642380Y-63523761D02*
X55547142Y-63571380D01*
X55356666Y-63571380D01*
X55261428Y-63523761D01*
X55213809Y-63476142D01*
X55166190Y-63380904D01*
X55166190Y-63095190D01*
X55213809Y-62999952D01*
X55261428Y-62952333D01*
X55356666Y-62904714D01*
X55547142Y-62904714D01*
X55642380Y-62952333D01*
X56547142Y-62904714D02*
X56547142Y-63571380D01*
X56118571Y-62904714D02*
X56118571Y-63428523D01*
X56166190Y-63523761D01*
X56261428Y-63571380D01*
X56404285Y-63571380D01*
X56499523Y-63523761D01*
X56547142Y-63476142D01*
X56975714Y-63523761D02*
X57070952Y-63571380D01*
X57261428Y-63571380D01*
X57356666Y-63523761D01*
X57404285Y-63428523D01*
X57404285Y-63380904D01*
X57356666Y-63285666D01*
X57261428Y-63238047D01*
X57118571Y-63238047D01*
X57023333Y-63190428D01*
X56975714Y-63095190D01*
X56975714Y-63047571D01*
X57023333Y-62952333D01*
X57118571Y-62904714D01*
X57261428Y-62904714D01*
X57356666Y-62952333D01*
X57689999Y-62904714D02*
X58070952Y-62904714D01*
X57832857Y-62571380D02*
X57832857Y-63428523D01*
X57880476Y-63523761D01*
X57975714Y-63571380D01*
X58070952Y-63571380D01*
X58547142Y-63571380D02*
X58451904Y-63523761D01*
X58404285Y-63476142D01*
X58356666Y-63380904D01*
X58356666Y-63095190D01*
X58404285Y-62999952D01*
X58451904Y-62952333D01*
X58547142Y-62904714D01*
X58689999Y-62904714D01*
X58785238Y-62952333D01*
X58832857Y-62999952D01*
X58880476Y-63095190D01*
X58880476Y-63380904D01*
X58832857Y-63476142D01*
X58785238Y-63523761D01*
X58689999Y-63571380D01*
X58547142Y-63571380D01*
X59261428Y-63523761D02*
X59356666Y-63571380D01*
X59547142Y-63571380D01*
X59642380Y-63523761D01*
X59689999Y-63428523D01*
X59689999Y-63380904D01*
X59642380Y-63285666D01*
X59547142Y-63238047D01*
X59404285Y-63238047D01*
X59309047Y-63190428D01*
X59261428Y-63095190D01*
X59261428Y-63047571D01*
X59309047Y-62952333D01*
X59404285Y-62904714D01*
X59547142Y-62904714D01*
X59642380Y-62952333D01*
X60547142Y-63571380D02*
X60547142Y-63047571D01*
X60499523Y-62952333D01*
X60404285Y-62904714D01*
X60213809Y-62904714D01*
X60118571Y-62952333D01*
X60547142Y-63523761D02*
X60451904Y-63571380D01*
X60213809Y-63571380D01*
X60118571Y-63523761D01*
X60070952Y-63428523D01*
X60070952Y-63333285D01*
X60118571Y-63238047D01*
X60213809Y-63190428D01*
X60451904Y-63190428D01*
X60547142Y-63142809D01*
X61023333Y-63571380D02*
X61023333Y-62904714D01*
X61023333Y-62999952D02*
X61070952Y-62952333D01*
X61166190Y-62904714D01*
X61309047Y-62904714D01*
X61404285Y-62952333D01*
X61451904Y-63047571D01*
X61451904Y-63571380D01*
X61451904Y-63047571D02*
X61499523Y-62952333D01*
X61594761Y-62904714D01*
X61737619Y-62904714D01*
X61832857Y-62952333D01*
X61880476Y-63047571D01*
X61880476Y-63571380D01*
X62785238Y-62904714D02*
X62785238Y-63571380D01*
X62356666Y-62904714D02*
X62356666Y-63428523D01*
X62404285Y-63523761D01*
X62499523Y-63571380D01*
X62642380Y-63571380D01*
X62737619Y-63523761D01*
X62785238Y-63476142D01*
X63642380Y-63523761D02*
X63547142Y-63571380D01*
X63356666Y-63571380D01*
X63261428Y-63523761D01*
X63213809Y-63428523D01*
X63213809Y-63047571D01*
X63261428Y-62952333D01*
X63356666Y-62904714D01*
X63547142Y-62904714D01*
X63642380Y-62952333D01*
X63689999Y-63047571D01*
X63689999Y-63142809D01*
X63213809Y-63238047D01*
X64261428Y-63571380D02*
X64166190Y-63523761D01*
X64118571Y-63428523D01*
X64118571Y-62571380D01*
X64642380Y-63571380D02*
X64642380Y-62571380D01*
X65070952Y-63571380D02*
X65070952Y-63047571D01*
X65023333Y-62952333D01*
X64928095Y-62904714D01*
X64785238Y-62904714D01*
X64689999Y-62952333D01*
X64642380Y-62999952D01*
X65975714Y-63571380D02*
X65975714Y-62571380D01*
X65975714Y-63523761D02*
X65880476Y-63571380D01*
X65689999Y-63571380D01*
X65594761Y-63523761D01*
X65547142Y-63476142D01*
X65499523Y-63380904D01*
X65499523Y-63095190D01*
X65547142Y-62999952D01*
X65594761Y-62952333D01*
X65689999Y-62904714D01*
X65880476Y-62904714D01*
X65975714Y-62952333D01*
X66832857Y-63523761D02*
X66737619Y-63571380D01*
X66547142Y-63571380D01*
X66451904Y-63523761D01*
X66404285Y-63428523D01*
X66404285Y-63047571D01*
X66451904Y-62952333D01*
X66547142Y-62904714D01*
X66737619Y-62904714D01*
X66832857Y-62952333D01*
X66880476Y-63047571D01*
X66880476Y-63142809D01*
X66404285Y-63238047D01*
X67213809Y-62904714D02*
X67737619Y-62904714D01*
X67213809Y-63571380D01*
X67737619Y-63571380D01*
X68118571Y-63571380D02*
X68118571Y-62904714D01*
X68118571Y-62999952D02*
X68166190Y-62952333D01*
X68261428Y-62904714D01*
X68404285Y-62904714D01*
X68499523Y-62952333D01*
X68547142Y-63047571D01*
X68547142Y-63571380D01*
X68547142Y-63047571D02*
X68594761Y-62952333D01*
X68689999Y-62904714D01*
X68832857Y-62904714D01*
X68928095Y-62952333D01*
X68975714Y-63047571D01*
X68975714Y-63571380D01*
X69880476Y-63571380D02*
X69880476Y-63047571D01*
X69832857Y-62952333D01*
X69737619Y-62904714D01*
X69547142Y-62904714D01*
X69451904Y-62952333D01*
X69880476Y-63523761D02*
X69785238Y-63571380D01*
X69547142Y-63571380D01*
X69451904Y-63523761D01*
X69404285Y-63428523D01*
X69404285Y-63333285D01*
X69451904Y-63238047D01*
X69547142Y-63190428D01*
X69785238Y-63190428D01*
X69880476Y-63142809D01*
X70356666Y-63571380D02*
X70356666Y-62904714D01*
X70356666Y-63095190D02*
X70404285Y-62999952D01*
X70451904Y-62952333D01*
X70547142Y-62904714D01*
X70642380Y-62904714D01*
X70832857Y-62904714D02*
X71213809Y-62904714D01*
X70975714Y-62571380D02*
X70975714Y-63428523D01*
X71023333Y-63523761D01*
X71118571Y-63571380D01*
X71213809Y-63571380D01*
X71547142Y-63571380D02*
X71547142Y-62904714D01*
X71547142Y-62571380D02*
X71499523Y-62619000D01*
X71547142Y-62666619D01*
X71594761Y-62619000D01*
X71547142Y-62571380D01*
X71547142Y-62666619D01*
X72023333Y-62904714D02*
X72023333Y-63571380D01*
X72023333Y-62999952D02*
X72070952Y-62952333D01*
X72166190Y-62904714D01*
X72309047Y-62904714D01*
X72404285Y-62952333D01*
X72451904Y-63047571D01*
X72451904Y-63571380D01*
X73547142Y-63095190D02*
X73499523Y-63047571D01*
X73404285Y-62999952D01*
X73309047Y-62999952D01*
X73213809Y-63047571D01*
X73166190Y-63095190D01*
X73118571Y-63190428D01*
X73118571Y-63285666D01*
X73166190Y-63380904D01*
X73213809Y-63428523D01*
X73309047Y-63476142D01*
X73404285Y-63476142D01*
X73499523Y-63428523D01*
X73547142Y-63380904D01*
X73547142Y-62999952D02*
X73547142Y-63380904D01*
X73594761Y-63428523D01*
X73642380Y-63428523D01*
X73737619Y-63380904D01*
X73785238Y-63285666D01*
X73785238Y-63047571D01*
X73689999Y-62904714D01*
X73547142Y-62809476D01*
X73356666Y-62761857D01*
X73166190Y-62809476D01*
X73023333Y-62904714D01*
X72928095Y-63047571D01*
X72880476Y-63238047D01*
X72928095Y-63428523D01*
X73023333Y-63571380D01*
X73166190Y-63666619D01*
X73356666Y-63714238D01*
X73547142Y-63666619D01*
X73689999Y-63571380D01*
X74642380Y-62904714D02*
X74642380Y-63714238D01*
X74594761Y-63809476D01*
X74547142Y-63857095D01*
X74451904Y-63904714D01*
X74309047Y-63904714D01*
X74213809Y-63857095D01*
X74642380Y-63523761D02*
X74547142Y-63571380D01*
X74356666Y-63571380D01*
X74261428Y-63523761D01*
X74213809Y-63476142D01*
X74166190Y-63380904D01*
X74166190Y-63095190D01*
X74213809Y-62999952D01*
X74261428Y-62952333D01*
X74356666Y-62904714D01*
X74547142Y-62904714D01*
X74642380Y-62952333D01*
X75118571Y-63571380D02*
X75118571Y-62904714D01*
X75118571Y-62999952D02*
X75166190Y-62952333D01*
X75261428Y-62904714D01*
X75404285Y-62904714D01*
X75499523Y-62952333D01*
X75547142Y-63047571D01*
X75547142Y-63571380D01*
X75547142Y-63047571D02*
X75594761Y-62952333D01*
X75689999Y-62904714D01*
X75832857Y-62904714D01*
X75928095Y-62952333D01*
X75975714Y-63047571D01*
X75975714Y-63571380D01*
X76880476Y-63571380D02*
X76880476Y-63047571D01*
X76832857Y-62952333D01*
X76737619Y-62904714D01*
X76547142Y-62904714D01*
X76451904Y-62952333D01*
X76880476Y-63523761D02*
X76785238Y-63571380D01*
X76547142Y-63571380D01*
X76451904Y-63523761D01*
X76404285Y-63428523D01*
X76404285Y-63333285D01*
X76451904Y-63238047D01*
X76547142Y-63190428D01*
X76785238Y-63190428D01*
X76880476Y-63142809D01*
X77356666Y-63571380D02*
X77356666Y-62904714D01*
X77356666Y-62571380D02*
X77309047Y-62619000D01*
X77356666Y-62666619D01*
X77404285Y-62619000D01*
X77356666Y-62571380D01*
X77356666Y-62666619D01*
X77975714Y-63571380D02*
X77880476Y-63523761D01*
X77832857Y-63428523D01*
X77832857Y-62571380D01*
X78356666Y-63476142D02*
X78404285Y-63523761D01*
X78356666Y-63571380D01*
X78309047Y-63523761D01*
X78356666Y-63476142D01*
X78356666Y-63571380D01*
X79261428Y-63523761D02*
X79166190Y-63571380D01*
X78975714Y-63571380D01*
X78880476Y-63523761D01*
X78832857Y-63476142D01*
X78785238Y-63380904D01*
X78785238Y-63095190D01*
X78832857Y-62999952D01*
X78880476Y-62952333D01*
X78975714Y-62904714D01*
X79166190Y-62904714D01*
X79261428Y-62952333D01*
X79832857Y-63571380D02*
X79737619Y-63523761D01*
X79689999Y-63476142D01*
X79642380Y-63380904D01*
X79642380Y-63095190D01*
X79689999Y-62999952D01*
X79737619Y-62952333D01*
X79832857Y-62904714D01*
X79975714Y-62904714D01*
X80070952Y-62952333D01*
X80118571Y-62999952D01*
X80166190Y-63095190D01*
X80166190Y-63380904D01*
X80118571Y-63476142D01*
X80070952Y-63523761D01*
X79975714Y-63571380D01*
X79832857Y-63571380D01*
X80594761Y-63571380D02*
X80594761Y-62904714D01*
X80594761Y-62999952D02*
X80642380Y-62952333D01*
X80737619Y-62904714D01*
X80880476Y-62904714D01*
X80975714Y-62952333D01*
X81023333Y-63047571D01*
X81023333Y-63571380D01*
X81023333Y-63047571D02*
X81070952Y-62952333D01*
X81166190Y-62904714D01*
X81309047Y-62904714D01*
X81404285Y-62952333D01*
X81451904Y-63047571D01*
X81451904Y-63571380D01*
X81832857Y-63952333D02*
X81880476Y-63904714D01*
X81975714Y-63761857D01*
X82023333Y-63666619D01*
X82070952Y-63523761D01*
X82118571Y-63285666D01*
X82118571Y-63095190D01*
X82070952Y-62857095D01*
X82023333Y-62714238D01*
X81975714Y-62619000D01*
X81880476Y-62476142D01*
X81832857Y-62428523D01*
D11*
X38190000Y-62019571D02*
X37690000Y-61305285D01*
X37332857Y-62019571D02*
X37332857Y-60519571D01*
X37904285Y-60519571D01*
X38047142Y-60591000D01*
X38118571Y-60662428D01*
X38190000Y-60805285D01*
X38190000Y-61019571D01*
X38118571Y-61162428D01*
X38047142Y-61233857D01*
X37904285Y-61305285D01*
X37332857Y-61305285D01*
X39475714Y-62019571D02*
X39475714Y-61233857D01*
X39404285Y-61091000D01*
X39261428Y-61019571D01*
X38975714Y-61019571D01*
X38832857Y-61091000D01*
X39475714Y-61948142D02*
X39332857Y-62019571D01*
X38975714Y-62019571D01*
X38832857Y-61948142D01*
X38761428Y-61805285D01*
X38761428Y-61662428D01*
X38832857Y-61519571D01*
X38975714Y-61448142D01*
X39332857Y-61448142D01*
X39475714Y-61376714D01*
X40832857Y-62019571D02*
X40832857Y-60519571D01*
X40832857Y-61948142D02*
X40690000Y-62019571D01*
X40404285Y-62019571D01*
X40261428Y-61948142D01*
X40190000Y-61876714D01*
X40118571Y-61733857D01*
X40118571Y-61305285D01*
X40190000Y-61162428D01*
X40261428Y-61091000D01*
X40404285Y-61019571D01*
X40690000Y-61019571D01*
X40832857Y-61091000D01*
X41547142Y-62019571D02*
X41547142Y-61019571D01*
X41547142Y-60519571D02*
X41475714Y-60591000D01*
X41547142Y-60662428D01*
X41618571Y-60591000D01*
X41547142Y-60519571D01*
X41547142Y-60662428D01*
X42475714Y-62019571D02*
X42332857Y-61948142D01*
X42261428Y-61876714D01*
X42190000Y-61733857D01*
X42190000Y-61305285D01*
X42261428Y-61162428D01*
X42332857Y-61091000D01*
X42475714Y-61019571D01*
X42690000Y-61019571D01*
X42832857Y-61091000D01*
X42904285Y-61162428D01*
X42975714Y-61305285D01*
X42975714Y-61733857D01*
X42904285Y-61876714D01*
X42832857Y-61948142D01*
X42690000Y-62019571D01*
X42475714Y-62019571D01*
X44690000Y-61948142D02*
X44832857Y-62019571D01*
X45118571Y-62019571D01*
X45261428Y-61948142D01*
X45332857Y-61805285D01*
X45332857Y-61733857D01*
X45261428Y-61591000D01*
X45118571Y-61519571D01*
X44904285Y-61519571D01*
X44761428Y-61448142D01*
X44690000Y-61305285D01*
X44690000Y-61233857D01*
X44761428Y-61091000D01*
X44904285Y-61019571D01*
X45118571Y-61019571D01*
X45261428Y-61091000D01*
X45832857Y-61019571D02*
X46118571Y-62019571D01*
X46404285Y-61305285D01*
X46690000Y-62019571D01*
X46975714Y-61019571D01*
X47547142Y-62019571D02*
X47547142Y-61019571D01*
X47547142Y-60519571D02*
X47475714Y-60591000D01*
X47547142Y-60662428D01*
X47618571Y-60591000D01*
X47547142Y-60519571D01*
X47547142Y-60662428D01*
X48047142Y-61019571D02*
X48618571Y-61019571D01*
X48261428Y-60519571D02*
X48261428Y-61805285D01*
X48332857Y-61948142D01*
X48475714Y-62019571D01*
X48618571Y-62019571D01*
X49761428Y-61948142D02*
X49618571Y-62019571D01*
X49332857Y-62019571D01*
X49190000Y-61948142D01*
X49118571Y-61876714D01*
X49047142Y-61733857D01*
X49047142Y-61305285D01*
X49118571Y-61162428D01*
X49190000Y-61091000D01*
X49332857Y-61019571D01*
X49618571Y-61019571D01*
X49761428Y-61091000D01*
X50404285Y-62019571D02*
X50404285Y-60519571D01*
X51047142Y-62019571D02*
X51047142Y-61233857D01*
X50975714Y-61091000D01*
X50832857Y-61019571D01*
X50618571Y-61019571D01*
X50475714Y-61091000D01*
X50404285Y-61162428D01*
X52904285Y-61019571D02*
X52904285Y-62519571D01*
X52904285Y-61091000D02*
X53047142Y-61019571D01*
X53332857Y-61019571D01*
X53475714Y-61091000D01*
X53547142Y-61162428D01*
X53618571Y-61305285D01*
X53618571Y-61733857D01*
X53547142Y-61876714D01*
X53475714Y-61948142D01*
X53332857Y-62019571D01*
X53047142Y-62019571D01*
X52904285Y-61948142D01*
X54904285Y-62019571D02*
X54904285Y-61233857D01*
X54832857Y-61091000D01*
X54690000Y-61019571D01*
X54404285Y-61019571D01*
X54261428Y-61091000D01*
X54904285Y-61948142D02*
X54761428Y-62019571D01*
X54404285Y-62019571D01*
X54261428Y-61948142D01*
X54190000Y-61805285D01*
X54190000Y-61662428D01*
X54261428Y-61519571D01*
X54404285Y-61448142D01*
X54761428Y-61448142D01*
X54904285Y-61376714D01*
X55618571Y-61019571D02*
X55618571Y-62019571D01*
X55618571Y-61162428D02*
X55690000Y-61091000D01*
X55832857Y-61019571D01*
X56047142Y-61019571D01*
X56190000Y-61091000D01*
X56261428Y-61233857D01*
X56261428Y-62019571D01*
X57547142Y-61948142D02*
X57404285Y-62019571D01*
X57118571Y-62019571D01*
X56975714Y-61948142D01*
X56904285Y-61805285D01*
X56904285Y-61233857D01*
X56975714Y-61091000D01*
X57118571Y-61019571D01*
X57404285Y-61019571D01*
X57547142Y-61091000D01*
X57618571Y-61233857D01*
X57618571Y-61376714D01*
X56904285Y-61519571D01*
X58475714Y-62019571D02*
X58332857Y-61948142D01*
X58261428Y-61805285D01*
X58261428Y-60519571D01*
X59975714Y-61019571D02*
X60547142Y-61019571D01*
X60190000Y-62019571D02*
X60190000Y-60733857D01*
X60261428Y-60591000D01*
X60404285Y-60519571D01*
X60547142Y-60519571D01*
X61261428Y-62019571D02*
X61118571Y-61948142D01*
X61047142Y-61876714D01*
X60975714Y-61733857D01*
X60975714Y-61305285D01*
X61047142Y-61162428D01*
X61118571Y-61091000D01*
X61261428Y-61019571D01*
X61475714Y-61019571D01*
X61618571Y-61091000D01*
X61690000Y-61162428D01*
X61761428Y-61305285D01*
X61761428Y-61733857D01*
X61690000Y-61876714D01*
X61618571Y-61948142D01*
X61475714Y-62019571D01*
X61261428Y-62019571D01*
X62404285Y-62019571D02*
X62404285Y-61019571D01*
X62404285Y-61305285D02*
X62475714Y-61162428D01*
X62547142Y-61091000D01*
X62690000Y-61019571D01*
X62832857Y-61019571D01*
X64975714Y-61233857D02*
X64475714Y-61233857D01*
X64475714Y-62019571D02*
X64475714Y-60519571D01*
X65190000Y-60519571D01*
X65975714Y-62019571D02*
X65832857Y-61948142D01*
X65761428Y-61805285D01*
X65761428Y-60519571D01*
X66547142Y-62019571D02*
X66547142Y-61019571D01*
X66547142Y-60519571D02*
X66475714Y-60591000D01*
X66547142Y-60662428D01*
X66618571Y-60591000D01*
X66547142Y-60519571D01*
X66547142Y-60662428D01*
X67904285Y-61019571D02*
X67904285Y-62233857D01*
X67832857Y-62376714D01*
X67761428Y-62448142D01*
X67618571Y-62519571D01*
X67404285Y-62519571D01*
X67261428Y-62448142D01*
X67904285Y-61948142D02*
X67761428Y-62019571D01*
X67475714Y-62019571D01*
X67332857Y-61948142D01*
X67261428Y-61876714D01*
X67190000Y-61733857D01*
X67190000Y-61305285D01*
X67261428Y-61162428D01*
X67332857Y-61091000D01*
X67475714Y-61019571D01*
X67761428Y-61019571D01*
X67904285Y-61091000D01*
X68618571Y-62019571D02*
X68618571Y-60519571D01*
X69261428Y-62019571D02*
X69261428Y-61233857D01*
X69190000Y-61091000D01*
X69047142Y-61019571D01*
X68832857Y-61019571D01*
X68690000Y-61091000D01*
X68618571Y-61162428D01*
X69761428Y-61019571D02*
X70332857Y-61019571D01*
X69975714Y-60519571D02*
X69975714Y-61805285D01*
X70047142Y-61948142D01*
X70190000Y-62019571D01*
X70332857Y-62019571D01*
X71904285Y-61948142D02*
X72118571Y-62019571D01*
X72475714Y-62019571D01*
X72618571Y-61948142D01*
X72690000Y-61876714D01*
X72761428Y-61733857D01*
X72761428Y-61591000D01*
X72690000Y-61448142D01*
X72618571Y-61376714D01*
X72475714Y-61305285D01*
X72190000Y-61233857D01*
X72047142Y-61162428D01*
X71975714Y-61091000D01*
X71904285Y-60948142D01*
X71904285Y-60805285D01*
X71975714Y-60662428D01*
X72047142Y-60591000D01*
X72190000Y-60519571D01*
X72547142Y-60519571D01*
X72761428Y-60591000D01*
X73404285Y-62019571D02*
X73404285Y-61019571D01*
X73404285Y-60519571D02*
X73332857Y-60591000D01*
X73404285Y-60662428D01*
X73475714Y-60591000D01*
X73404285Y-60519571D01*
X73404285Y-60662428D01*
X74118571Y-62019571D02*
X74118571Y-61019571D01*
X74118571Y-61162428D02*
X74190000Y-61091000D01*
X74332857Y-61019571D01*
X74547142Y-61019571D01*
X74690000Y-61091000D01*
X74761428Y-61233857D01*
X74761428Y-62019571D01*
X74761428Y-61233857D02*
X74832857Y-61091000D01*
X74975714Y-61019571D01*
X75190000Y-61019571D01*
X75332857Y-61091000D01*
X75404285Y-61233857D01*
X75404285Y-62019571D01*
X76761428Y-61019571D02*
X76761428Y-62019571D01*
X76118571Y-61019571D02*
X76118571Y-61805285D01*
X76190000Y-61948142D01*
X76332857Y-62019571D01*
X76547142Y-62019571D01*
X76690000Y-61948142D01*
X76761428Y-61876714D01*
X77690000Y-62019571D02*
X77547142Y-61948142D01*
X77475714Y-61805285D01*
X77475714Y-60519571D01*
X78904285Y-62019571D02*
X78904285Y-61233857D01*
X78832857Y-61091000D01*
X78690000Y-61019571D01*
X78404285Y-61019571D01*
X78261428Y-61091000D01*
X78904285Y-61948142D02*
X78761428Y-62019571D01*
X78404285Y-62019571D01*
X78261428Y-61948142D01*
X78190000Y-61805285D01*
X78190000Y-61662428D01*
X78261428Y-61519571D01*
X78404285Y-61448142D01*
X78761428Y-61448142D01*
X78904285Y-61376714D01*
X79404285Y-61019571D02*
X79975714Y-61019571D01*
X79618571Y-60519571D02*
X79618571Y-61805285D01*
X79690000Y-61948142D01*
X79832857Y-62019571D01*
X79975714Y-62019571D01*
X80690000Y-62019571D02*
X80547142Y-61948142D01*
X80475714Y-61876714D01*
X80404285Y-61733857D01*
X80404285Y-61305285D01*
X80475714Y-61162428D01*
X80547142Y-61091000D01*
X80690000Y-61019571D01*
X80904285Y-61019571D01*
X81047142Y-61091000D01*
X81118571Y-61162428D01*
X81190000Y-61305285D01*
X81190000Y-61733857D01*
X81118571Y-61876714D01*
X81047142Y-61948142D01*
X80904285Y-62019571D01*
X80690000Y-62019571D01*
X81832857Y-62019571D02*
X81832857Y-61019571D01*
X81832857Y-61305285D02*
X81904285Y-61162428D01*
X81975714Y-61091000D01*
X82118571Y-61019571D01*
X82261428Y-61019571D01*
D12*
%TO.C,SW9*%
X162040000Y-42500000D02*
X162040000Y-43500000D01*
X162540000Y-43000000D02*
X162040000Y-42500000D01*
X162040000Y-43500000D02*
X162540000Y-43000000D01*
X167260000Y-36590000D02*
X166950000Y-36590000D01*
X167260000Y-45410000D02*
X166950000Y-45410000D01*
X163050000Y-45410000D02*
X162740000Y-45410000D01*
X167260000Y-36590000D02*
X167260000Y-45410000D01*
X162740000Y-36590000D02*
X163050000Y-36590000D01*
X162740000Y-45410000D02*
X162740000Y-36590000D01*
%TO.C,SW8*%
X148170000Y-42500000D02*
X148170000Y-43500000D01*
X148670000Y-43000000D02*
X148170000Y-42500000D01*
X148170000Y-43500000D02*
X148670000Y-43000000D01*
X153390000Y-36590000D02*
X153080000Y-36590000D01*
X153390000Y-45410000D02*
X153080000Y-45410000D01*
X149180000Y-45410000D02*
X148870000Y-45410000D01*
X153390000Y-36590000D02*
X153390000Y-45410000D01*
X148870000Y-36590000D02*
X149180000Y-36590000D01*
X148870000Y-45410000D02*
X148870000Y-36590000D01*
%TO.C,SW7*%
X134040000Y-42500000D02*
X134040000Y-43500000D01*
X134540000Y-43000000D02*
X134040000Y-42500000D01*
X134040000Y-43500000D02*
X134540000Y-43000000D01*
X139260000Y-36590000D02*
X138950000Y-36590000D01*
X139260000Y-45410000D02*
X138950000Y-45410000D01*
X135050000Y-45410000D02*
X134740000Y-45410000D01*
X139260000Y-36590000D02*
X139260000Y-45410000D01*
X134740000Y-36590000D02*
X135050000Y-36590000D01*
X134740000Y-45410000D02*
X134740000Y-36590000D01*
%TO.C,SW6*%
X120040000Y-42500000D02*
X120040000Y-43500000D01*
X120540000Y-43000000D02*
X120040000Y-42500000D01*
X120040000Y-43500000D02*
X120540000Y-43000000D01*
X125260000Y-36590000D02*
X124950000Y-36590000D01*
X125260000Y-45410000D02*
X124950000Y-45410000D01*
X121050000Y-45410000D02*
X120740000Y-45410000D01*
X125260000Y-36590000D02*
X125260000Y-45410000D01*
X120740000Y-36590000D02*
X121050000Y-36590000D01*
X120740000Y-45410000D02*
X120740000Y-36590000D01*
%TO.C,SW5*%
X106040000Y-42500000D02*
X106040000Y-43500000D01*
X106540000Y-43000000D02*
X106040000Y-42500000D01*
X106040000Y-43500000D02*
X106540000Y-43000000D01*
X111260000Y-36590000D02*
X110950000Y-36590000D01*
X111260000Y-45410000D02*
X110950000Y-45410000D01*
X107050000Y-45410000D02*
X106740000Y-45410000D01*
X111260000Y-36590000D02*
X111260000Y-45410000D01*
X106740000Y-36590000D02*
X107050000Y-36590000D01*
X106740000Y-45410000D02*
X106740000Y-36590000D01*
%TO.C,SW4*%
X92040000Y-42500000D02*
X92040000Y-43500000D01*
X92540000Y-43000000D02*
X92040000Y-42500000D01*
X92040000Y-43500000D02*
X92540000Y-43000000D01*
X97260000Y-36590000D02*
X96950000Y-36590000D01*
X97260000Y-45410000D02*
X96950000Y-45410000D01*
X93050000Y-45410000D02*
X92740000Y-45410000D01*
X97260000Y-36590000D02*
X97260000Y-45410000D01*
X92740000Y-36590000D02*
X93050000Y-36590000D01*
X92740000Y-45410000D02*
X92740000Y-36590000D01*
%TO.C,SW3*%
X78040000Y-42500000D02*
X78040000Y-43500000D01*
X78540000Y-43000000D02*
X78040000Y-42500000D01*
X78040000Y-43500000D02*
X78540000Y-43000000D01*
X83260000Y-36590000D02*
X82950000Y-36590000D01*
X83260000Y-45410000D02*
X82950000Y-45410000D01*
X79050000Y-45410000D02*
X78740000Y-45410000D01*
X83260000Y-36590000D02*
X83260000Y-45410000D01*
X78740000Y-36590000D02*
X79050000Y-36590000D01*
X78740000Y-45410000D02*
X78740000Y-36590000D01*
%TO.C,SW2*%
X64040000Y-42500000D02*
X64040000Y-43500000D01*
X64540000Y-43000000D02*
X64040000Y-42500000D01*
X64040000Y-43500000D02*
X64540000Y-43000000D01*
X69260000Y-36590000D02*
X68950000Y-36590000D01*
X69260000Y-45410000D02*
X68950000Y-45410000D01*
X65050000Y-45410000D02*
X64740000Y-45410000D01*
X69260000Y-36590000D02*
X69260000Y-45410000D01*
X64740000Y-36590000D02*
X65050000Y-36590000D01*
X64740000Y-45410000D02*
X64740000Y-36590000D01*
%TO.C,SW1*%
X50040000Y-42500000D02*
X50040000Y-43500000D01*
X50540000Y-43000000D02*
X50040000Y-42500000D01*
X50040000Y-43500000D02*
X50540000Y-43000000D01*
X55260000Y-36590000D02*
X54950000Y-36590000D01*
X55260000Y-45410000D02*
X54950000Y-45410000D01*
X51050000Y-45410000D02*
X50740000Y-45410000D01*
X55260000Y-36590000D02*
X55260000Y-45410000D01*
X50740000Y-36590000D02*
X51050000Y-36590000D01*
X50740000Y-45410000D02*
X50740000Y-36590000D01*
%TO.C,D3*%
X42951130Y-44259837D02*
G75*
G02*
X40869039Y-44260000I-1041130J1079837D01*
G01*
X42951130Y-42100163D02*
G75*
G03*
X40869039Y-42100000I-1041130J-1079837D01*
G01*
X43582335Y-44258608D02*
G75*
G02*
X40350000Y-44415516I-1672335J1078608D01*
G01*
X43582335Y-42101392D02*
G75*
G03*
X40350000Y-41944484I-1672335J-1078608D01*
G01*
X40350000Y-41944000D02*
X40350000Y-42100000D01*
X40350000Y-44260000D02*
X40350000Y-44416000D01*
%TO.C,D2*%
X42951130Y-32829837D02*
G75*
G02*
X40869039Y-32830000I-1041130J1079837D01*
G01*
X42951130Y-30670163D02*
G75*
G03*
X40869039Y-30670000I-1041130J-1079837D01*
G01*
X43582335Y-32828608D02*
G75*
G02*
X40350000Y-32985516I-1672335J1078608D01*
G01*
X43582335Y-30671392D02*
G75*
G03*
X40350000Y-30514484I-1672335J-1078608D01*
G01*
X40350000Y-30514000D02*
X40350000Y-30670000D01*
X40350000Y-32830000D02*
X40350000Y-32986000D01*
%TO.C,D1*%
X42951130Y-56959837D02*
G75*
G02*
X40869039Y-56960000I-1041130J1079837D01*
G01*
X42951130Y-54800163D02*
G75*
G03*
X40869039Y-54800000I-1041130J-1079837D01*
G01*
X43582335Y-56958608D02*
G75*
G02*
X40350000Y-57115516I-1672335J1078608D01*
G01*
X43582335Y-54801392D02*
G75*
G03*
X40350000Y-54644484I-1672335J-1078608D01*
G01*
X40350000Y-54644000D02*
X40350000Y-54800000D01*
X40350000Y-56960000D02*
X40350000Y-57116000D01*
%TO.C,SW9*%
D10*
X162414761Y-40343333D02*
X162462380Y-40200476D01*
X162462380Y-39962380D01*
X162414761Y-39867142D01*
X162367142Y-39819523D01*
X162271904Y-39771904D01*
X162176666Y-39771904D01*
X162081428Y-39819523D01*
X162033809Y-39867142D01*
X161986190Y-39962380D01*
X161938571Y-40152857D01*
X161890952Y-40248095D01*
X161843333Y-40295714D01*
X161748095Y-40343333D01*
X161652857Y-40343333D01*
X161557619Y-40295714D01*
X161510000Y-40248095D01*
X161462380Y-40152857D01*
X161462380Y-39914761D01*
X161510000Y-39771904D01*
X161462380Y-39438571D02*
X162462380Y-39200476D01*
X161748095Y-39010000D01*
X162462380Y-38819523D01*
X161462380Y-38581428D01*
X162462380Y-38152857D02*
X162462380Y-37962380D01*
X162414761Y-37867142D01*
X162367142Y-37819523D01*
X162224285Y-37724285D01*
X162033809Y-37676666D01*
X161652857Y-37676666D01*
X161557619Y-37724285D01*
X161510000Y-37771904D01*
X161462380Y-37867142D01*
X161462380Y-38057619D01*
X161510000Y-38152857D01*
X161557619Y-38200476D01*
X161652857Y-38248095D01*
X161890952Y-38248095D01*
X161986190Y-38200476D01*
X162033809Y-38152857D01*
X162081428Y-38057619D01*
X162081428Y-37867142D01*
X162033809Y-37771904D01*
X161986190Y-37724285D01*
X161890952Y-37676666D01*
%TO.C,SW8*%
X148544761Y-40343333D02*
X148592380Y-40200476D01*
X148592380Y-39962380D01*
X148544761Y-39867142D01*
X148497142Y-39819523D01*
X148401904Y-39771904D01*
X148306666Y-39771904D01*
X148211428Y-39819523D01*
X148163809Y-39867142D01*
X148116190Y-39962380D01*
X148068571Y-40152857D01*
X148020952Y-40248095D01*
X147973333Y-40295714D01*
X147878095Y-40343333D01*
X147782857Y-40343333D01*
X147687619Y-40295714D01*
X147640000Y-40248095D01*
X147592380Y-40152857D01*
X147592380Y-39914761D01*
X147640000Y-39771904D01*
X147592380Y-39438571D02*
X148592380Y-39200476D01*
X147878095Y-39010000D01*
X148592380Y-38819523D01*
X147592380Y-38581428D01*
X148020952Y-38057619D02*
X147973333Y-38152857D01*
X147925714Y-38200476D01*
X147830476Y-38248095D01*
X147782857Y-38248095D01*
X147687619Y-38200476D01*
X147640000Y-38152857D01*
X147592380Y-38057619D01*
X147592380Y-37867142D01*
X147640000Y-37771904D01*
X147687619Y-37724285D01*
X147782857Y-37676666D01*
X147830476Y-37676666D01*
X147925714Y-37724285D01*
X147973333Y-37771904D01*
X148020952Y-37867142D01*
X148020952Y-38057619D01*
X148068571Y-38152857D01*
X148116190Y-38200476D01*
X148211428Y-38248095D01*
X148401904Y-38248095D01*
X148497142Y-38200476D01*
X148544761Y-38152857D01*
X148592380Y-38057619D01*
X148592380Y-37867142D01*
X148544761Y-37771904D01*
X148497142Y-37724285D01*
X148401904Y-37676666D01*
X148211428Y-37676666D01*
X148116190Y-37724285D01*
X148068571Y-37771904D01*
X148020952Y-37867142D01*
%TO.C,SW7*%
X134414761Y-40343333D02*
X134462380Y-40200476D01*
X134462380Y-39962380D01*
X134414761Y-39867142D01*
X134367142Y-39819523D01*
X134271904Y-39771904D01*
X134176666Y-39771904D01*
X134081428Y-39819523D01*
X134033809Y-39867142D01*
X133986190Y-39962380D01*
X133938571Y-40152857D01*
X133890952Y-40248095D01*
X133843333Y-40295714D01*
X133748095Y-40343333D01*
X133652857Y-40343333D01*
X133557619Y-40295714D01*
X133510000Y-40248095D01*
X133462380Y-40152857D01*
X133462380Y-39914761D01*
X133510000Y-39771904D01*
X133462380Y-39438571D02*
X134462380Y-39200476D01*
X133748095Y-39010000D01*
X134462380Y-38819523D01*
X133462380Y-38581428D01*
X133462380Y-38295714D02*
X133462380Y-37629047D01*
X134462380Y-38057619D01*
%TO.C,SW6*%
X120414761Y-40343333D02*
X120462380Y-40200476D01*
X120462380Y-39962380D01*
X120414761Y-39867142D01*
X120367142Y-39819523D01*
X120271904Y-39771904D01*
X120176666Y-39771904D01*
X120081428Y-39819523D01*
X120033809Y-39867142D01*
X119986190Y-39962380D01*
X119938571Y-40152857D01*
X119890952Y-40248095D01*
X119843333Y-40295714D01*
X119748095Y-40343333D01*
X119652857Y-40343333D01*
X119557619Y-40295714D01*
X119510000Y-40248095D01*
X119462380Y-40152857D01*
X119462380Y-39914761D01*
X119510000Y-39771904D01*
X119462380Y-39438571D02*
X120462380Y-39200476D01*
X119748095Y-39010000D01*
X120462380Y-38819523D01*
X119462380Y-38581428D01*
X119462380Y-37771904D02*
X119462380Y-37962380D01*
X119510000Y-38057619D01*
X119557619Y-38105238D01*
X119700476Y-38200476D01*
X119890952Y-38248095D01*
X120271904Y-38248095D01*
X120367142Y-38200476D01*
X120414761Y-38152857D01*
X120462380Y-38057619D01*
X120462380Y-37867142D01*
X120414761Y-37771904D01*
X120367142Y-37724285D01*
X120271904Y-37676666D01*
X120033809Y-37676666D01*
X119938571Y-37724285D01*
X119890952Y-37771904D01*
X119843333Y-37867142D01*
X119843333Y-38057619D01*
X119890952Y-38152857D01*
X119938571Y-38200476D01*
X120033809Y-38248095D01*
%TO.C,SW5*%
X106414761Y-40343333D02*
X106462380Y-40200476D01*
X106462380Y-39962380D01*
X106414761Y-39867142D01*
X106367142Y-39819523D01*
X106271904Y-39771904D01*
X106176666Y-39771904D01*
X106081428Y-39819523D01*
X106033809Y-39867142D01*
X105986190Y-39962380D01*
X105938571Y-40152857D01*
X105890952Y-40248095D01*
X105843333Y-40295714D01*
X105748095Y-40343333D01*
X105652857Y-40343333D01*
X105557619Y-40295714D01*
X105510000Y-40248095D01*
X105462380Y-40152857D01*
X105462380Y-39914761D01*
X105510000Y-39771904D01*
X105462380Y-39438571D02*
X106462380Y-39200476D01*
X105748095Y-39010000D01*
X106462380Y-38819523D01*
X105462380Y-38581428D01*
X105462380Y-37724285D02*
X105462380Y-38200476D01*
X105938571Y-38248095D01*
X105890952Y-38200476D01*
X105843333Y-38105238D01*
X105843333Y-37867142D01*
X105890952Y-37771904D01*
X105938571Y-37724285D01*
X106033809Y-37676666D01*
X106271904Y-37676666D01*
X106367142Y-37724285D01*
X106414761Y-37771904D01*
X106462380Y-37867142D01*
X106462380Y-38105238D01*
X106414761Y-38200476D01*
X106367142Y-38248095D01*
%TO.C,SW4*%
X92414761Y-40343333D02*
X92462380Y-40200476D01*
X92462380Y-39962380D01*
X92414761Y-39867142D01*
X92367142Y-39819523D01*
X92271904Y-39771904D01*
X92176666Y-39771904D01*
X92081428Y-39819523D01*
X92033809Y-39867142D01*
X91986190Y-39962380D01*
X91938571Y-40152857D01*
X91890952Y-40248095D01*
X91843333Y-40295714D01*
X91748095Y-40343333D01*
X91652857Y-40343333D01*
X91557619Y-40295714D01*
X91510000Y-40248095D01*
X91462380Y-40152857D01*
X91462380Y-39914761D01*
X91510000Y-39771904D01*
X91462380Y-39438571D02*
X92462380Y-39200476D01*
X91748095Y-39010000D01*
X92462380Y-38819523D01*
X91462380Y-38581428D01*
X91795714Y-37771904D02*
X92462380Y-37771904D01*
X91414761Y-38010000D02*
X92129047Y-38248095D01*
X92129047Y-37629047D01*
%TO.C,SW3*%
X78414761Y-40343333D02*
X78462380Y-40200476D01*
X78462380Y-39962380D01*
X78414761Y-39867142D01*
X78367142Y-39819523D01*
X78271904Y-39771904D01*
X78176666Y-39771904D01*
X78081428Y-39819523D01*
X78033809Y-39867142D01*
X77986190Y-39962380D01*
X77938571Y-40152857D01*
X77890952Y-40248095D01*
X77843333Y-40295714D01*
X77748095Y-40343333D01*
X77652857Y-40343333D01*
X77557619Y-40295714D01*
X77510000Y-40248095D01*
X77462380Y-40152857D01*
X77462380Y-39914761D01*
X77510000Y-39771904D01*
X77462380Y-39438571D02*
X78462380Y-39200476D01*
X77748095Y-39010000D01*
X78462380Y-38819523D01*
X77462380Y-38581428D01*
X77462380Y-38295714D02*
X77462380Y-37676666D01*
X77843333Y-38010000D01*
X77843333Y-37867142D01*
X77890952Y-37771904D01*
X77938571Y-37724285D01*
X78033809Y-37676666D01*
X78271904Y-37676666D01*
X78367142Y-37724285D01*
X78414761Y-37771904D01*
X78462380Y-37867142D01*
X78462380Y-38152857D01*
X78414761Y-38248095D01*
X78367142Y-38295714D01*
%TO.C,SW2*%
X64414761Y-40343333D02*
X64462380Y-40200476D01*
X64462380Y-39962380D01*
X64414761Y-39867142D01*
X64367142Y-39819523D01*
X64271904Y-39771904D01*
X64176666Y-39771904D01*
X64081428Y-39819523D01*
X64033809Y-39867142D01*
X63986190Y-39962380D01*
X63938571Y-40152857D01*
X63890952Y-40248095D01*
X63843333Y-40295714D01*
X63748095Y-40343333D01*
X63652857Y-40343333D01*
X63557619Y-40295714D01*
X63510000Y-40248095D01*
X63462380Y-40152857D01*
X63462380Y-39914761D01*
X63510000Y-39771904D01*
X63462380Y-39438571D02*
X64462380Y-39200476D01*
X63748095Y-39010000D01*
X64462380Y-38819523D01*
X63462380Y-38581428D01*
X63557619Y-38248095D02*
X63510000Y-38200476D01*
X63462380Y-38105238D01*
X63462380Y-37867142D01*
X63510000Y-37771904D01*
X63557619Y-37724285D01*
X63652857Y-37676666D01*
X63748095Y-37676666D01*
X63890952Y-37724285D01*
X64462380Y-38295714D01*
X64462380Y-37676666D01*
%TO.C,SW1*%
X50414761Y-40343333D02*
X50462380Y-40200476D01*
X50462380Y-39962380D01*
X50414761Y-39867142D01*
X50367142Y-39819523D01*
X50271904Y-39771904D01*
X50176666Y-39771904D01*
X50081428Y-39819523D01*
X50033809Y-39867142D01*
X49986190Y-39962380D01*
X49938571Y-40152857D01*
X49890952Y-40248095D01*
X49843333Y-40295714D01*
X49748095Y-40343333D01*
X49652857Y-40343333D01*
X49557619Y-40295714D01*
X49510000Y-40248095D01*
X49462380Y-40152857D01*
X49462380Y-39914761D01*
X49510000Y-39771904D01*
X49462380Y-39438571D02*
X50462380Y-39200476D01*
X49748095Y-39010000D01*
X50462380Y-38819523D01*
X49462380Y-38581428D01*
X50462380Y-37676666D02*
X50462380Y-38248095D01*
X50462380Y-37962380D02*
X49462380Y-37962380D01*
X49605238Y-38057619D01*
X49700476Y-38152857D01*
X49748095Y-38248095D01*
%TO.C,D3*%
X41171904Y-40672380D02*
X41171904Y-39672380D01*
X41410000Y-39672380D01*
X41552857Y-39720000D01*
X41648095Y-39815238D01*
X41695714Y-39910476D01*
X41743333Y-40100952D01*
X41743333Y-40243809D01*
X41695714Y-40434285D01*
X41648095Y-40529523D01*
X41552857Y-40624761D01*
X41410000Y-40672380D01*
X41171904Y-40672380D01*
X42076666Y-39672380D02*
X42695714Y-39672380D01*
X42362380Y-40053333D01*
X42505238Y-40053333D01*
X42600476Y-40100952D01*
X42648095Y-40148571D01*
X42695714Y-40243809D01*
X42695714Y-40481904D01*
X42648095Y-40577142D01*
X42600476Y-40624761D01*
X42505238Y-40672380D01*
X42219523Y-40672380D01*
X42124285Y-40624761D01*
X42076666Y-40577142D01*
%TO.C,D2*%
X41171904Y-29242380D02*
X41171904Y-28242380D01*
X41410000Y-28242380D01*
X41552857Y-28290000D01*
X41648095Y-28385238D01*
X41695714Y-28480476D01*
X41743333Y-28670952D01*
X41743333Y-28813809D01*
X41695714Y-29004285D01*
X41648095Y-29099523D01*
X41552857Y-29194761D01*
X41410000Y-29242380D01*
X41171904Y-29242380D01*
X42124285Y-28337619D02*
X42171904Y-28290000D01*
X42267142Y-28242380D01*
X42505238Y-28242380D01*
X42600476Y-28290000D01*
X42648095Y-28337619D01*
X42695714Y-28432857D01*
X42695714Y-28528095D01*
X42648095Y-28670952D01*
X42076666Y-29242380D01*
X42695714Y-29242380D01*
%TO.C,D1*%
X41171904Y-53372380D02*
X41171904Y-52372380D01*
X41410000Y-52372380D01*
X41552857Y-52420000D01*
X41648095Y-52515238D01*
X41695714Y-52610476D01*
X41743333Y-52800952D01*
X41743333Y-52943809D01*
X41695714Y-53134285D01*
X41648095Y-53229523D01*
X41552857Y-53324761D01*
X41410000Y-53372380D01*
X41171904Y-53372380D01*
X42695714Y-53372380D02*
X42124285Y-53372380D01*
X42410000Y-53372380D02*
X42410000Y-52372380D01*
X42314761Y-52515238D01*
X42219523Y-52610476D01*
X42124285Y-52658095D01*
%TD*%
M02*
